<ttFont>
          <CharString index="0">
            rmoveto
            -359 -284 -299 -414.99000549316406 -237.02000427246094 124 -220.97000122070312 309 260 184 148.99000549316406 84.99000549316406 59 hvcurveto
            -92 171 rlineto
            239 callsubr
            -43 callsubr
            -27.020004272460938 60.99000549316406 96.00999450683594 hvcurveto
            333 -50 callgsubr
            274 127 299 vvcurveto
            277 callsubr
            vhcurveto
            -4 -297 rmoveto
            -161 -150 -130 -118 -7 vhcurveto
            140 3 63 259.02000427246094 127 hhcurveto
            53 22 -31.009994506835938 -70 hvcurveto
            endchar
          </CharString>
          <CharString index="1">
            rmoveto
            -421.99000549316406 -214.02000427246094 -323.99000549316406 -363.00999450683594 -261 118 -223.97999572753906 298 421.99000549316406 213.02000427246094 323.97999572753906 362.99000549316406 261 -117 224 -298 hvcurveto
            -171.99000549316406 -958.0099945068359 rmoveto
            -69.02000427246094 -41 68.00999450683594 163 225 67.02000427246094 288.00999450683594 162 70 40 -64 -173.02000427246094 -234.99000549316406 -63 -272.02000427246094 -165.99000549316406 hvcurveto
            endchar
          </CharString>
          <CharString index="2">
            rmoveto
            -325 183 -268.97999572753906 368.99000549316406 466 280 440.9700012207031 521.0099945068359 326 -181 274 -362 -471.99000549316406 -283.00999450683594 -446.00999450683594 -522 vhcurveto
            934.0099945068359 357 rmoveto
            18 callsubr
            -139.99000549316406 -76 81 264.99000549316406 305.00999450683594 -60 callgsubr
            379 223 141 76 -4 callgsubr
            -264.99000549316406 vhcurveto
            endchar
          </CharString>
          <CharString index="3">
            rmoveto
            -318 hlineto
            107 callsubr
            -16.020004272460938 -154.99000549316406 -10 -66.00999450683594 vhcurveto
            -29 -183.99000549316406 -66.00999450683594 -170 -76.99000549316406 -121 -59 -76 rcurveline
            -13 209 -48 665 rlineto
            -343 hlineto
            34 -330.02000427246094 54 callsubr
            -175.99000549316406 -85.02000427246094 -177 -75 -115 rlinecurve
            -59 -76 -12.979995727539062 209 -59 665 rlineto
            -361 hlineto
            103 -785.0200042724609 55 -375.9700012207031 274.97999572753906 12 20.009994506835938 16.979995727539062 121 109 -71 callgsubr
            110 69 112 rlinecurve
            53.99000549316406 -359.9700012207031 259.00999450683594 12 79 callsubr
            16.979995727539062 rlineto
            349 290 224.02000427246094 328.00999450683594 356 vvcurveto
            107.99000549316406 -9 34 -2 50 callgsubr
            vhcurveto
            endchar
          </CharString>
          <CharString index="4">
            rmoveto
            83 callgsubr
            hvcurveto
            13 206 rlineto
            -340.99000549316406 hlineto
            -156.02000427246094 -1140 rlineto
            357 hlineto
            97 698.9799957275391 rlineto
            114.00999450683594 58 93 74 73.00999450683594 -98 callsubr
            rrcurveto
            22 154 callgsubr
            18 135 137 callsubr
            -105 78 -171.99000549316406 vhcurveto
            return
          </CharString>
          <CharString index="5">
            rmoveto
            355 1 22 callsubr
            -739.9799957275391 -1531 390 1 117 103 callsubr
            523 hlineto
            31.990005493164062 -286.97999572753906 rlineto
            -456.99000549316406 527.9900054931641 rmoveto
            275.99000549316406 675 39 118.99000549316406 5.9799957275390625 -34 callsubr
            76 -675 rlineto
            -396.99000549316406 hlineto
            endchar
          </CharString>
          <CharString index="6">
            rmoveto
            -119.99000549316406 -287.99000549316406 rlineto
            -37 45.97999572753906 53 callsubr
            51 callgsubr
            2 125 callsubr
            rrcurveto
            71 0.9900054931640625 56.02000427246094 66.00999450683594 129 hhcurveto
            -56 callsubr
            112 -41 -46 46 hvcurveto
            112 280.97999572753906 rlineto
            37 -52 -134 48 -175 hhcurveto
            -322 -211.99000549316406 -178 -279 -186 134 -142.99000549316406 122 -92 hvcurveto
            144 -37 callgsubr
            46 -51 -2 -88 rrcurveto
            -84.99000549316406 -92 callsubr
            -51.02000427246094 -68 -151 hhcurveto
            79 callgsubr
            -129 52 48.99000549316406 -63 hvcurveto
            endchar
          </CharString>
          <CharString index="7">
            -102 callgsubr
            165.99000549316406 108.00999450683594 141.97999572753906 122 -38 callsubr
            hvcurveto
            -12 -247.99000549316406 rlineto
            320 hlineto
            59 callsubr
            return
          </CharString>
          <CharString index="8">
            rmoveto
            -59.99000549316406 -29 73 136 241 99.99000549316406 272 206 26.990005493164062 25 -1 -4 23 hvcurveto
            -47 -335.00999450683594 rlineto
            -142.99000549316406 -41 -103 -239 78 callgsubr
            endchar
          </CharString>
          <CharString index="9">
            -51 callgsubr
            -77 callsubr
            -65 -11.020004272460938 -96.99000549316406 -13.990005493164062 -116 -21.009994506835938 -174 -29 -201 -15 callgsubr
            -134.97999572753906 rrcurveto
            -50 callsubr
            50 callgsubr
            121 -40 callgsubr
            -9 callgsubr
            25 183 return
          </CharString>
          <CharString index="10">
            -90 callgsubr
            25.990005493164062 25 -1 -77 callsubr
            23 hvcurveto
            -46 70 callgsubr
            rlineto
            -142.99000549316406 -41 96 callsubr
            -237.02000427246094 -102.02000427246094 hhcurveto
            endchar
          </CharString>
          <CharString index="11">
            rmoveto
            -481.02000427246094 -331 -423.02000427246094 -499 -317.99000549316406 115 callgsubr
            -321.97999572753906 417 217 188.99000549316406 95.97999572753906 31.990005493164062 42 hvcurveto
            -46 249 rlineto
            -37.99000549316406 -52 -127 -52 -129 hhcurveto
            -198 -77 115 239 304 -4 callsubr
            318 252 callsubr
            150 96.00999450683594 -70 -36 41 hvcurveto
            0 callgsubr
            335.00999450683594 -53 13.990005493164062 rlineto
            21.009994506835938 -51 -94 35 -153.99000549316406 hhcurveto
            endchar
          </CharString>
          <CharString index="12">
            -6 callgsubr
            -50 callsubr
            158 1140 rlineto
            -358.99000549316406 hlineto
            return
          </CharString>
          <CharString index="13">
            rmoveto
            -85 -589.9900054931641 103 callgsubr
            589.9900054931641 599.9900054931641 940.0099945068359 rlineto
            -392.99000549316406 hlineto
            -284 -525 -58 -134 -25 134 -141 525 rlineto
            -372 hlineto
            319 -940.0099945068359 rlineto
            endchar
          </CharString>
          <CharString index="14">
            -83.99000549316406 return
          </CharString>
          <CharString index="15">
            -1.9900054931640625 return
          </CharString>
          <CharString index="16">
            91 callgsubr
            hintmask 10011100
            277 callsubr
            -105 -98 -23 -43 -86 vhcurveto
            hintmask 01101100
            37 -61.99000549316406 -97.02000427246094 29 -105 hhcurveto
            -502.99000549316406 -250 -375.00999450683594 -368.99000549316406 -230 74 -197.97999572753906 252 172 119 162.97000122070312 147 64 hvcurveto
            hintmask 10101100
            -173 122 callsubr
            129 -136.99000549316406 243 hhcurveto
            260.00999450683594 184 148.99000549316406 84.99000549316406 59 hvcurveto
            -92 171 rlineto
            -65 -49 -147 -98 -127 hhcurveto
            hintmask 01011100
            43 734 rmoveto
            53 22 -31.009994506835938 -70 -161 -150 -130 -118 -7 hvcurveto
            140 3 63 259.02000427246094 127 hhcurveto
            -555.0099945068359 -382.02000427246094 rmoveto
            -170 -35.97999572753906 -116.02000427246094 -162 -69 hhcurveto
            -59.99000549316406 -19 51 136 hvcurveto
            hintmask 10101100
            241 115 272 241 26.990005493164062 33 -3 -8.990005493164062 34.02000427246094 vhcurveto
            hintmask 01011100
            -76 -93 -53 -120 -21.020004272460938 -143 rrcurveto
            endchar
          </CharString>
          <CharString index="17">
            -74 callsubr
            -95.00999450683594 -74 callgsubr
            return
          </CharString>
          <CharString index="18">
            vstem
            236.99000549316406 924 -83 callgsubr
            -97 callgsubr
            35 callsubr
            -16 callgsubr
            122 hlineto
            return
          </CharString>
          <CharString index="19">
            rmoveto
            -218.99000549316406 -39 callsubr
            49 callsubr
            225 callsubr
            -96.99000549316406 -792 -13 -260.02000427246094 -79 260.02000427246094 -356 792 rlineto
            -307.02000427246094 hlineto
            return
          </CharString>
          <CharString index="20">
            154 callsubr
            368 hstemhm
            250 callsubr
            87 callsubr
            255 callsubr
            290 21 callsubr
            -59 callgsubr
            91 111 2 220 callsubr
            -124 -66 callgsubr
            -54 246 callgsubr
            -95 callsubr
            endchar
          </CharString>
          <CharString index="21">
            -17 callsubr
            1104 -1190.009994506836 rmoveto
            hintmask 01101000
            742.0099945068359 1088 -23 86.02000427246094 rlineto
            -976 hlineto
            -46.02000427246094 -285 587.0200042724609 10 -93 -52 callsubr
            -774 -1099 27 203 callgsubr
            1043 hlineto
            47 291.97999572753906 -618 -10 rlineto
            hintmask 10011000
            -50 callgsubr
            74 rlineto
            -1319 -10 callsubr
            11 callgsubr
          </CharString>
          <CharString index="22">
            rmoveto
            117 203 -89 48.99000549316406 -110 -192 rlineto
            97 callgsubr
            -76 -94 24.990005493164062 -110 263 callgsubr
            -446 -522 -193 64 -173 130 -37 callgsubr
            hvcurveto
            72 callgsubr
            -187.99000549316406 89.00999450683594 116 callgsubr
            113 180.97999572753906 rlineto
            -40 181 callsubr
            92.02000427246094 -23 106.99000549316406 hhcurveto
            466 280 440.99000549316406 521.0099945068359 187.99000549316406 -60 171 -121 111 hvcurveto
            -400 -136 rmoveto
            60 48.99000549316406 55 callsubr
            -37 35 hvcurveto
            -473 -834.9900054931641 rlineto
            -16 51 -7.9900054931640625 66.00999450683594 86 vvcurveto
            304.97999572753906 -60 callgsubr
            379 223 vhcurveto
            -137 -1030 rmoveto
            153 callgsubr
            -46 13 31 -34 hvcurveto
            471 826 rlineto
            12 -48 6 -61 -76 vvcurveto
            -314.97999572753906 -131 -370.00999450683594 -223 vhcurveto
            endchar
          </CharString>
          <CharString index="23">
            87 -14 258.99000549316406 428 251 362.989990234375 260.99000549316406 hstem
            1063.990005493164 -26 callsubr
            vstem
            846.9900054931641 1547.979995727539 rmoveto
            -92 -210 -16 -85.00999450683594 hhcurveto
            -156 hlineto
            -87 -607.9900054931641 rlineto
            -163 hlineto
            142 callsubr
            -251 rlineto
            151.99000549316406 hlineto
            -27 callgsubr
            -671 rlineto
            144 hlineto
            63 77 -4.9799957275390625 -4.0099945068359375 69 hvcurveto
            -4 56 51 -3 -62 callsubr
            hhcurveto
            574.0099945068359 272 452.99000549316406 495 364.99000549316406 101 callgsubr
            -61 -53.99000549316406 8 14.009994506835938 -40 hvcurveto
            58 406 rlineto
            303.97999572753906 hlineto
            26.009994506835938 251 rlineto
            -294.00999450683594 hlineto
            50 350 rlineto
            70 callsubr
            40 71 5 41.99000549316406 hhcurveto
            199 91.02000427246094 -70 -278 -377 -137 -317.00999450683594 -295 hvcurveto
            endchar
          </CharString>
          <CharString index="24">
            -95 callgsubr
            264.99000549316406 320.99000549316406 62 callgsubr
            407.00999450683594 289.00999450683594 return
          </CharString>
          <CharString index="25">
            rmoveto
            237 -26 callgsubr
            89 210 228.99000549316406 vvcurveto
            250 -148.99000549316406 143 -399.02000427246094 vhcurveto
            71 callgsubr
            -39.02000427246094 -16 -34 callsubr
            hhcurveto
            -202 hlineto
            -218 140 callgsubr
            85.02000427246094 572.9900054931641 rlineto
            157 hlineto
            31.990005493164062 60 -92 -175 122 callsubr
            hvcurveto
            49 -184 13 -86.02000427246094 25 -35.97999572753906 rrcurveto
            391.99000549316406 hlineto
            -39 -38 callsubr
            -15.009994506835938 48.99000549316406 -85 262 -34 128 -51 98.02000427246094 -55 47.99000549316406 rrcurveto
            -260 204 rmoveto
            -42 -99 0 3 -54 hvcurveto
            62.02000427246094 442 rlineto
            5 29 60.99000549316406 5 47 hhcurveto
            149.02000427246094 55 callgsubr
            147 callsubr
          </CharString>
          <CharString index="26">
            -170 -95 callgsubr
            213.97999572753906 744.0000152587891 131 callsubr
            return
          </CharString>
          <CharString index="27">
            173 callsubr
            -210 25 callgsubr
            rlineto
            return
          </CharString>
          <CharString index="28">
            1.9900054931640625 return
          </CharString>
          <CharString index="29">
            -555.9900054931641 -83 callgsubr
            hintmask 10110000
            -97 callgsubr
            hintmask 11001000
            35 callsubr
            hintmask 10110000
            28 -5 callsubr
            24 134 50.02000427246094 20 -38 callsubr
            1 rlinecurve
            57 0.9900054931640625 return
          </CharString>
          <CharString index="30">
            -2.9900054931640625 return
          </CharString>
          <CharString index="31">
            hhcurveto
            467.99000549316406 235 370.9700012207031 369.00999450683594 230 -68 callgsubr
            202 -251.99000549316406 hvcurveto
            -343 -962 rmoveto
            -29 -27.020004272460938 1 5 -25 hvcurveto
            97 callgsubr
            355 -1 -55.99000549316406 rlineto
            134 31 110.99000549316406 279 112 hhcurveto
            60 28 87 callgsubr
            -135.99000549316406 -241 -99 -268 193 callsubr
            hvcurveto
            endchar
          </CharString>
          <CharString index="32">
            rmoveto
            70 callgsubr
            -980 -52.97999572753906 -222 -23 222 -60 980 rlineto
            -345 hlineto
            37 -339 -258 -641 -68 -222 -23 callsubr
            222 -59 980 rlineto
            25 callsubr
            185 -1530 rlineto
            375 hlineto
            199.99000549316406 546 61 168 18 -168 57 -546 rlineto
            413 hlineto
            595 -40 callsubr
            -364.00999450683594 hlineto
            endchar
          </CharString>
          <CharString index="33">
            80 callgsubr
            hlineto
            -45 -288.00999450683594 rlineto
            -25 -52 -98 -7.9900054931640625 -49 hhcurveto
            -203 return
          </CharString>
          <CharString index="34">
            -103.02000427246094 24 13 callsubr
            return
          </CharString>
          <CharString index="35">
            274.97999572753906 378.510009765625 269 333.5 274 return
          </CharString>
          <CharString index="36">
            64.97999572753906 353.99000549316406 339.00999450683594 358.00999450683594 return
          </CharString>
          <CharString index="37">
            -91 callgsubr
            144 hlineto
            63.02000427246094 76.99000549316406 -5 -4 69 hvcurveto
            -4.0099945068359375 56 51 -77 callsubr
            37 hhcurveto
            573.9900054931641 272 452.9700012207031 495 return
          </CharString>
          <CharString index="38">
            28 -5 callsubr
            24 134 49.99000549316406 20 56.02000427246094 1 rlinecurve
            57 0.9900054931640625 return
          </CharString>
          <CharString index="39">
            -66.99000549316406 return
          </CharString>
          <CharString index="40">
            -239 208 callsubr
            734 -43 callgsubr
            hstem
            -59 callgsubr
            61 callsubr
            267.99998474121094 344 vstem
            return
          </CharString>
          <CharString index="41">
            243.99000549316406 return
          </CharString>
          <CharString index="42">
            rmoveto
            -91 callgsubr
            354 hlineto
            return
          </CharString>
          <CharString index="43">
            -30 callsubr
            258 callgsubr
            144 hlineto
            63 77 -5 -4 69 hvcurveto
            -4.0099945068359375 56 51 -77 callsubr
            37 hhcurveto
            574 271.99000549316406 16 callsubr
            198.99000549316406 91.00999450683594 -70 -278.02000427246094 -377 -137 -316.97999572753906 -295 hvcurveto
            endchar
          </CharString>
          <CharString index="44">
            -47 callgsubr
            -183 -13 callgsubr
            return
          </CharString>
          <CharString index="45">
            36.99000549316406 return
          </CharString>
          <CharString index="46">
            66.99000549316406 return
          </CharString>
          <CharString index="47">
            -35 callgsubr
            2 15 -79 callsubr
            14 hvcurveto
            -187.99000549316406 hlineto
            -5.0200042724609375 -18 -6.9900054931640625 190 callsubr
            return
          </CharString>
          <CharString index="48">
            -83 -95 callgsubr
            -29 callgsubr
            return
          </CharString>
          <CharString index="49">
            -13 65 callgsubr
            -93 callsubr
            -118 hhcurveto
            -118 -44 callsubr
            39 80 return
          </CharString>
          <CharString index="50">
            77.99000549316406 return
          </CharString>
          <CharString index="51">
            100.99000549316406 return
          </CharString>
          <CharString index="52">
            -127 -924 220 callgsubr
            2.9900054931640625 return
          </CharString>
          <CharString index="53">
            rmoveto
            -681 -1530 rlineto
            259.00999450683594 hlineto
            681 -40 callsubr
            -259.00999450683594 hlineto
            981.0200042724609 -1251 rmoveto
            -192 -7 31.990005493164062 262 -267 -23 -35 -248.02000427246094 -302 -11 66.00999450683594 86 444.99000549316406 669 -213 104.02000427246094 152 callsubr
            -1 -550.0200042724609 -926 61 -128 rlineto
            533 hlineto
            -41 -292.97999572753906 rlineto
            278 hlineto
            35 292.97999572753906 rlineto
            194 hlineto
            24 223 rlineto
            endchar
          </CharString>
          <CharString index="54">
            -2 callgsubr
            150 callsubr
            48 callsubr
            return
          </CharString>
          <CharString index="55">
            -67.00999450683594 return
          </CharString>
          <CharString index="56">
            -99 121 46 262 234 36 68 rlinecurve
            return
          </CharString>
          <CharString index="57">
            356.99000549316406 hlineto
            return
          </CharString>
          <CharString index="58">
            rmoveto
            -419 -1530 rlineto
            349 hlineto
            248 1139 48 234 2 -234 119.99000549316406 -1157 389 15.009994506835938 437 1141.990005493164 74 234 121 callsubr
            -234 -89.00999450683594 -1139 rlineto
            353.02000427246094 hlineto
            23.990005493164062 -40 callsubr
            -517 hlineto
            -355 -1053 -47.99000549316406 -225 -6 225 -68.02000427246094 1053 rlineto
            -514.9900054931641 hlineto
            endchar
          </CharString>
          <CharString index="59">
            -293 -95 callgsubr
            282.99000549316406 999.9900054931641 278.99000549316406 hstem
            167.99000549316406 338 105.989990234375 362 vstem
            return
          </CharString>
          <CharString index="60">
            -87 callgsubr
            700.0099945068359 hmoveto
            -61 -435.02000427246094 -68 callsubr
            -617 -4 callgsubr
            111 callgsubr
            44 -118 rcurveline
            237 263.99000549316406 91.02000427246094 340.99000549316406 56 callsubr
            hvcurveto
            27 98 88 223 callgsubr
          </CharString>
          <CharString index="61">
            -93 callsubr
            -43 callsubr
            hhcurveto
            -118 -15 callsubr
            39 80 16 2 15.009994506835938 2 226 callgsubr
            -188 hlineto
            return
          </CharString>
          <CharString index="62">
            183 -167 145 -57 callsubr
            -212 337 183 callgsubr
            -371 -348 return
          </CharString>
          <CharString index="63">
            -25.990005493164062 return
          </CharString>
          <CharString index="64">
            -117.99000549316406 return
          </CharString>
          <CharString index="65">
            -6 49 callgsubr
            241 794 209.00999450683594 return
          </CharString>
          <CharString index="66">
            4 -55.99000549316406 hhcurveto
            -270.00999450683594 -183.99000549316406 -47 callgsubr
            -248 -36 hvcurveto
            -19 -105 rlineto
            -111 hlineto
            -41 -216 rlineto
            return
          </CharString>
          <CharString index="67">
            1530 rlineto
            return
          </CharString>
          <CharString index="68">
            -25 callsubr
            348 -832.9799957275391 rlineto
            297 hlineto
            return
          </CharString>
          <CharString index="69">
            55.99000549316406 return
          </CharString>
          <CharString index="70">
            -11 callsubr
            -287 24 callsubr
            return
          </CharString>
          <CharString index="71">
            -395 -95 callgsubr
            256.97999572753906 637.0000152587891 277.99000549316406 hstem
            73.99000549316406 -26 callsubr
            vstem
            return
          </CharString>
          <CharString index="72">
            -68 callsubr
            287 -7 callsubr
            return
          </CharString>
          <CharString index="73">
            -118.99000549316406 return
          </CharString>
          <CharString index="74">
            rmoveto
            179 callsubr
            -980 -53 -222 -23 222 -60 980 rlineto
            -345 hlineto
            37 -339 -258 -641 -68 -222 -23 callsubr
            222 -59 980 rlineto
            25 callsubr
            185 -1530 rlineto
            375.00999450683594 hlineto
            199.99000549316406 546 61 168 18 -168 57 -546 rlineto
            413 hlineto
            595 -40 callsubr
            -364.00999450683594 hlineto
            endchar
          </CharString>
          <CharString index="75">
            rmoveto
            282 callsubr
            -52 callsubr
            -617 -80 59 callgsubr
            -86.99000549316406 -151 -173 -43 63 callsubr
            -118 rcurveline
            236.99000549316406 264 91.02000427246094 340.99000549316406 85 hvcurveto
            123 callgsubr
            98 87.99000549316406 223 callgsubr
          </CharString>
          <CharString index="76">
            145 -57 callsubr
            -211.99000549316406 337 rlineto
            return
          </CharString>
          <CharString index="77">
            rmoveto
            -92 -210 -16 -84.99000549316406 hhcurveto
            -156.02000427246094 hlineto
            return
          </CharString>
          <CharString index="78">
            113 callsubr
            -10 callsubr
            return
          </CharString>
          <CharString index="79">
            89 -95 callgsubr
            270.99000549316406 return
          </CharString>
          <CharString index="80">
            265.99000549316406 return
          </CharString>
          <CharString index="81">
            363.99000549316406 return
          </CharString>
          <CharString index="82">
            -1530 rlineto
            338 hlineto
            115 832.9799957275391 -77 callsubr
            275 99 -275 return
          </CharString>
          <CharString index="83">
            37.99000549316406 return
          </CharString>
          <CharString index="84">
            -20.009994506835938 return
          </CharString>
          <CharString index="85">
            85 callsubr
            2 249 callgsubr
            74 -117 hhcurveto
            -124 -1 callsubr
            -2 hvcurveto
            return
          </CharString>
          <CharString index="86">
            -665 616.9799957275391 367 hstem
            148.99000549316406 368.97999572753906 vstem
            356.99000549316406 983.9799957275391 rmoveto
            120 callgsubr
            232 callsubr
            97 265 callsubr
            87.02000427246094 130.99000549316406 194 callsubr
            214 callgsubr
            69 -118 hvcurveto
            endchar
          </CharString>
          <CharString index="87">
            193 -159 134 -43 callsubr
            93.99000549316406 return
          </CharString>
          <CharString index="88">
            -66 callsubr
            -100.00001525878906 67 callsubr
            return
          </CharString>
          <CharString index="89">
            317 vstem
            38 callgsubr
            1239.979995727539 rmoveto
            -191 102.00999450683594 -117 80 -45 vhcurveto
            192 156 5 41 rlineto
            -33 33 -29 105.99000549316406 182 callgsubr
            vvcurveto
            159.99000549316406 81 112 69 35 vhcurveto
            -79 callsubr
            22 -115 141 rlineto
            -144 -60 -210 -187.99000549316406 -283.02000427246094 vvcurveto
            return
          </CharString>
          <CharString index="90">
            -30 callsubr
            -70 callsubr
            136 callgsubr
            hvcurveto
            return
          </CharString>
          <CharString index="91">
            61 callsubr
            vstem
            928.9900054931641 175 callgsubr
            83 callgsubr
            hvcurveto
            20 callgsubr
            return
          </CharString>
          <CharString index="92">
            -26.009994506835938 return
          </CharString>
          <CharString index="93">
            -49 callgsubr
            -45 callgsubr
            return
          </CharString>
          <CharString index="94">
            -147.99000549316406 -61 callsubr
            return
          </CharString>
          <CharString index="95">
            -79 callsubr
            -71.99000549316406 76 return
          </CharString>
          <CharString index="96">
            41 callgsubr
            -13 callsubr
            return
          </CharString>
          <CharString index="97">
            -112.99000549316406 return
          </CharString>
          <CharString index="98">
            86.99000549316406 130.99000549316406 80 -43 69 return
          </CharString>
          <CharString index="99">
            -59 0 233.97999572753906 138 callgsubr
            1101.979995727539 hintmask 10100000
            return
          </CharString>
          <CharString index="100">
            167 -63 callgsubr
            return
          </CharString>
          <CharString index="101">
            -188.99000549316406 return
          </CharString>
          <CharString index="102">
            158.99000549316406 return
          </CharString>
          <CharString index="103">
            114.00999450683594 return
          </CharString>
          <CharString index="104">
            -95 callgsubr
            209.97999572753906 718.0000152587891 -66 callsubr
            return
          </CharString>
          <CharString index="105">
            -93 callsubr
            34 callgsubr
            return
          </CharString>
          <CharString index="106">
            -93 callsubr
            -87 -108.99000549316406 return
          </CharString>
          <CharString index="107">
            124.99000549316406 return
          </CharString>
          <CharString index="108">
            -61 callsubr
            249 callsubr
            -47 callgsubr
            -182.99000549316406 176.99000549316406 return
          </CharString>
          <CharString index="109">
            rmoveto
            119 callgsubr
            39 callsubr
            101.00999450683594 -20 callgsubr
            -68.02000427246094 88 -90.99000549316406 -23 callgsubr
            vhcurveto
            endchar
          </CharString>
          <CharString index="110">
            rmoveto
            -95 -664 rlineto
            -482 hlineto
            95.00999450683594 664 rlineto
            -354 281 callgsubr
            89 622 rlineto
            482 hlineto
            -56 callgsubr
            -622 rlineto
            357.99000549316406 278 callsubr
            275 callgsubr
            hlineto
            endchar
          </CharString>
          <CharString index="111">
            -35 44 rlineto
            -822 hlineto
            -36.99000549316406 -267.02000427246094 rlineto
            427.99000549316406 hlineto
            -52 -37.99000549316406 -554 -790 35 -44.99000549316406 rlineto
            877.0200042724609 hlineto
            28 271.99000549316406 rlineto
            -456.00999450683594 165 callsubr
            return
          </CharString>
          <CharString index="112">
            283 callsubr
            96 callgsubr
            hhcurveto
            143 170 callsubr
            -107 hhcurveto
            -123.99000549316406 -66 callgsubr
            return
          </CharString>
          <CharString index="113">
            129 60 162 callsubr
            101 callsubr
            -113 -65.99000549316406 -87 286 callgsubr
            return
          </CharString>
          <CharString index="114">
            190 -656 397.99000549316406 -110 -171.99000549316406 364 -301 -430 -306.02000427246094 58 -204.99000549316406 return
          </CharString>
          <CharString index="115">
            -190 656 -397.99000549316406 110 168 callsubr
            -363.99000549316406 301.02000427246094 430 306 -58 205 return
          </CharString>
          <CharString index="116">
            -147 -1075.020004272461 rlineto
            -203.97999572753906 return
          </CharString>
          <CharString index="117">
            -35 44 rlineto
            -821.9900054931641 hlineto
            -37 -267.02000427246094 rlineto
            428.02000427246094 hlineto
            231 callgsubr
            -37.99000549316406 rlineto
            hintmask 01111000
            -553.9900054931641 -790 35 -44.99000549316406 rlineto
            877 hlineto
            28 271.99000549316406 rlineto
            -456 hlineto
            return
          </CharString>
          <CharString index="118">
            -59 callgsubr
            -72 callgsubr
            155 callsubr
            hhcurveto
            return
          </CharString>
          <CharString index="119">
            rmoveto
            39 callsubr
            101 -20 callgsubr
            -68.02000427246094 88 -91 98 callsubr
          </CharString>
          <CharString index="120">
            -93 callsubr
            hhcurveto
            return
          </CharString>
          <CharString index="121">
            -74 callgsubr
            186 165 -86 -36 return
          </CharString>
          <CharString index="122">
            280 callsubr
            718.0000152587891 210 return
          </CharString>
          <CharString index="123">
            452.9700012207031 495 365.02000427246094 -158 249 -423 hvcurveto
            -215 -1303 -36 callgsubr
            return
          </CharString>
          <CharString index="124">
            105 callgsubr
            57 64 110 56 callsubr
            return
          </CharString>
          <CharString index="125">
            -315 -131 -370 -223 return
          </CharString>
          <CharString index="126">
            -72 callgsubr
            155 callsubr
            hhcurveto
            -124 -2 callsubr
            92 callgsubr
            return
          </CharString>
          <CharString index="127">
            -85 102 callgsubr
            876.9900054931641 66 callsubr
            840 hlineto
            -62 callsubr
            204 callsubr
            -839.9900054931641 hlineto
            endchar
          </CharString>
          <CharString index="128">
            1 callgsubr
            -25 callgsubr
            return
          </CharString>
          <CharString index="129">
            104 callgsubr
            -450 hlineto
            return
          </CharString>
          <CharString index="130">
            60 134 callsubr
            241 callsubr
            return
          </CharString>
          <CharString index="131">
            -63 callsubr
            rlineto
            return
          </CharString>
          <CharString index="132">
            -356.99000549316406 hlineto
            return
          </CharString>
          <CharString index="133">
            162 callgsubr
            -23 callsubr
            -209 rlineto
            577 hlineto
            20.009994506835938 209 rlineto
            -577 hlineto
            return
          </CharString>
          <CharString index="134">
            1056 -95 callgsubr
            258.99000549316406 -243 -31 callgsubr
            144.99000549316406 260.99000549316406 hstemhm
            1050.990005493164 -26 callsubr
            hintmask 01111000
            return
          </CharString>
          <CharString index="135">
            91 111 2 hvcurveto
            -14 callgsubr
            return
          </CharString>
          <CharString index="136">
            -9 callgsubr
            25 183 rrcurveto
            22 154 callgsubr
            18 135 137 callsubr
            -105 78 return
          </CharString>
          <CharString index="137">
            -43 callgsubr
            306.99998474121094 107 callgsubr
            return
          </CharString>
          <CharString index="138">
            91.00999450683594 111 2.9900054931640625 hvcurveto
            87 2 return
          </CharString>
          <CharString index="139">
            hstemhm
            162.97999572753906 331.02000427246094 return
          </CharString>
          <CharString index="140">
            181 346.99000549316406 47 hvcurveto
            return
          </CharString>
          <CharString index="141">
            0 2013.979995727539 hstem
            return
          </CharString>
          <CharString index="142">
            122 hlineto
            764.9900054931641 hmoveto
            -55 callsubr
            -6.9799957275390625 -57 133.97999572753906 978 vhcurveto
            187 259 callsubr
            216 rlineto
            -189 hlineto
            return
          </CharString>
          <CharString index="143">
            -65 callsubr
            87 608.9900054931641 432 -7 36 291 -428.00999450683594 -6 53 372 500 -4 42 275 rlineto
            -857.0099945068359 hlineto
            endchar
          </CharString>
          <CharString index="144">
            rmoveto
            -74 callsubr
            return
          </CharString>
          <CharString index="145">
            -497 -362 1958.990005493164 hstem
            -142 1135 vstem
            -142 -362 rmoveto
            271.99000549316406 hlineto
            863 1958.990005493164 rlineto
            -274 hlineto
            -861 -1958.990005493164 rlineto
            endchar
          </CharString>
          <CharString index="146">
            22 callgsubr
            -3 -15 callsubr
            return
          </CharString>
          <CharString index="147">
            -211 -516.9900054931641 258 hstem
            773.9799957275391 326 vstem
            return
          </CharString>
          <CharString index="148">
            16 callgsubr
            1634.990005493164 368 hstemhm
            return
          </CharString>
          <CharString index="149">
            1826.979995727539 rmoveto
            176 callsubr
            return
          </CharString>
          <CharString index="150">
            -93 -92 callsubr
            76 89 callgsubr
            return
          </CharString>
          <CharString index="151">
            hstem
            -76 callgsubr
            vstem
            return
          </CharString>
          <CharString index="152">
            212 -337 rlineto
            180 hlineto
            return
          </CharString>
          <CharString index="153">
            hvcurveto
            -14 callgsubr
            2 -61 45 callgsubr
            132 callsubr
            return
          </CharString>
          <CharString index="154">
            vvcurveto
            -159.99000549316406 -81 -112 -69 -35 vhcurveto
            -2 -22 return
          </CharString>
          <CharString index="155">
            76 -106.99000549316406 hhcurveto
            return
          </CharString>
          <CharString index="156">
            218.99000549316406 return
          </CharString>
          <CharString index="157">
            -25 rlinecurve
            417 -1.9799957275390625 -61 96.99000549316406 -64 106 callsubr
            -64.99000549316406 128 rlinecurve
            -85.00999450683594 167 -87 182 -88 164.99000549316406 rrcurveto
            return
          </CharString>
          <CharString index="158">
            -280 -204 -248 -249 hvcurveto
            1160.990005493164 495 rmoveto
            -727 -1530 rlineto
            269 hlineto
            707.0099945068359 -40 callsubr
            -249.02000427246094 hlineto
            -598 -369 rmoveto
            return
          </CharString>
          <CharString index="159">
            233 76 callgsubr
            return
          </CharString>
          <CharString index="160">
            193 -58.97999572753906 157 hhcurveto
            return
          </CharString>
          <CharString index="161">
            -30.990005493164062 return
          </CharString>
          <CharString index="162">
            -14.990005493164062 return
          </CharString>
          <CharString index="163">
            85.00999450683594 return
          </CharString>
          <CharString index="164">
            -37 143 callgsubr
            269 hstemhm
            824.9900054931641 61 callsubr
            255 callsubr
            919 175 callgsubr
            -158 -131 -92 -142 -88 hvcurveto
            29 150 return
          </CharString>
          <CharString index="165">
            -180 -50 callgsubr
            -116 240 return
          </CharString>
          <CharString index="166">
            161 -10 callgsubr
            return
          </CharString>
          <CharString index="167">
            81 -27 callgsubr
            hhcurveto
            return
          </CharString>
          <CharString index="168">
            370.99000549316406 return
          </CharString>
          <CharString index="169">
            -20.990005493164062 return
          </CharString>
          <CharString index="170">
            43.99000549316406 return
          </CharString>
          <CharString index="171">
            72.00999450683594 return
          </CharString>
          <CharString index="172">
            hmoveto
            68 callsubr
            return
          </CharString>
          <CharString index="173">
            vstem
            259.99000549316406 896 rmoveto
            -37 -248.02000427246094 rlineto
            return
          </CharString>
          <CharString index="174">
            -66 callsubr
            hstemhm
            return
          </CharString>
          <CharString index="175">
            -129 -78.99000549316406 6 callgsubr
            return
          </CharString>
          <CharString index="176">
            22 callgsubr
            -2.9900054931640625 -15 callsubr
            return
          </CharString>
          <CharString index="177">
            7.9900054931640625 return
          </CharString>
          <CharString index="178">
            -82.99000549316406 return
          </CharString>
          <CharString index="179">
            -104 -59 -177 -135.99000549316406 -68 callgsubr
            116 callgsubr
            71 167 callgsubr
            106.99000549316406 -61 callsubr
            168 138 vhcurveto
            return
          </CharString>
          <CharString index="180">
            -171 -14 213.99000549316406 743.989990234375 131 callsubr
            return
          </CharString>
          <CharString index="181">
            1681 rmoveto
            -124 -66 callgsubr
            -41 callgsubr
            -25 callgsubr
            return
          </CharString>
          <CharString index="182">
            33 callgsubr
            -14 callgsubr
            2 return
          </CharString>
          <CharString index="183">
            -193 0 42 callgsubr
            return
          </CharString>
          <CharString index="184">
            204 callgsubr
            227 callsubr
            return
          </CharString>
          <CharString index="185">
            96 callgsubr
            hhcurveto
            return
          </CharString>
          <CharString index="186">
            19.990005493164062 return
          </CharString>
          <CharString index="187">
            184 callsubr
            64 callgsubr
            hhcurveto
            -112.99000549316406 -66 -87 -37 callgsubr
            return
          </CharString>
          <CharString index="188">
            -92 callsubr
            -49 callgsubr
            return
          </CharString>
          <CharString index="189">
            -68 262 -234 121 -46 return
          </CharString>
          <CharString index="190">
            182.99000549316406 200 101 213 162 -129 75 -47 callgsubr
            -156.02000427246094 -233.99000549316406 -71.99000549316406 -235 return
          </CharString>
          <CharString index="191">
            225 callgsubr
            596.9900054931641 hlineto
            18 49 callsubr
            rlineto
            return
          </CharString>
          <CharString index="192">
            151 callgsubr
            -49 callgsubr
            91.00999450683594 111 3 hvcurveto
            87 return
          </CharString>
          <CharString index="193">
            -187 34 callsubr
            82.97999572753906 1272.990005493164 vstem
            return
          </CharString>
          <CharString index="194">
            386.99000549316406 return
          </CharString>
          <CharString index="195">
            -78.99000549316406 return
          </CharString>
          <CharString index="196">
            -3 133 -15 43 callgsubr
            39 hvcurveto
            72 callgsubr
            145 rlineto
            -52 -41.99000549316406 -35 -58 -83 hhcurveto
            return
          </CharString>
          <CharString index="197">
            424 233 279 340.99000549316406 -1 hvcurveto
            293.00999450683594 -1 -193 146 -344 -133 -118 -16 -77.99000549316406 hhcurveto
            return
          </CharString>
          <CharString index="198">
            62 callsubr
            -55 hhcurveto
            -39 222 callgsubr
            182 callsubr
            -38 callsubr
            hvcurveto
            endchar
          </CharString>
          <CharString index="199">
            vstem
            300.99000549316406 1687 rmoveto
            -85.00999450683594 -721.0200042724609 rlineto
            228 hlineto
            184 721.0200042724609 rlineto
            -327 hlineto
            return
          </CharString>
          <CharString index="200">
            -70 rlineto
            104 67 callgsubr
            return
          </CharString>
          <CharString index="201">
            191 107 callsubr
            117 -80 45 vhcurveto
            -192 -156 -5 -41 rlineto
            return
          </CharString>
          <CharString index="202">
            11.020004272460938 return
          </CharString>
          <CharString index="203">
            -101.99000549316406 return
          </CharString>
          <CharString index="204">
            rmoveto
            -219 110 callgsubr
            return
          </CharString>
          <CharString index="205">
            -23 callgsubr
            vhcurveto
            119 callgsubr
            endchar
          </CharString>
          <CharString index="206">
            -28 -77 -68 -71 52.99000549316406 71 108.02000427246094 92 36 77 return
          </CharString>
          <CharString index="207">
            1665.990005493164 rmoveto
            112 callsubr
            return
          </CharString>
          <CharString index="208">
            -79 callsubr
            -64 60 callsubr
            return
          </CharString>
          <CharString index="209">
            374 35 callgsubr
            return
          </CharString>
          <CharString index="210">
            49 callgsubr
            rlineto
            return
          </CharString>
          <CharString index="211">
            -374 rlineto
            179 hlineto
            return
          </CharString>
          <CharString index="212">
            -32.99000549316406 return
          </CharString>
          <CharString index="213">
            119.00999450683594 return
          </CharString>
          <CharString index="214">
            -102.00999450683594 return
          </CharString>
          <CharString index="215">
            267 callsubr
            47 callgsubr
            return
          </CharString>
          <CharString index="216">
            hvcurveto
            -88 -181 rlineto
            -23 30 -49 callgsubr
            -11 182 callgsubr
            hhcurveto
            251 233 33 callsubr
            return
          </CharString>
          <CharString index="217">
            0 274.97999572753906 21.010009765625 250.97999572753906 106.52000427246094 281 callsubr
            return
          </CharString>
          <CharString index="218">
            -110 -7 154 129 callgsubr
            -140 -106 -91 return
          </CharString>
          <CharString index="219">
            148 -68 callsubr
            return
          </CharString>
          <CharString index="220">
            81 64 callgsubr
            hhcurveto
            return
          </CharString>
          <CharString index="221">
            174.99000549316406 rlineto
            -44 return
          </CharString>
          <CharString index="222">
            357.00999450683594 return
          </CharString>
          <CharString index="223">
            236 callgsubr
            rmoveto
            124 99 70 callgsubr
            449 -209 -200 36 82 callsubr
            rlinecurve
            return
          </CharString>
          <CharString index="224">
            -512 -20 -66 callsubr
            700 216 return
          </CharString>
          <CharString index="225">
            1935.990005493164 rmoveto
            return
          </CharString>
          <CharString index="226">
            -83 81 callsubr
            -93 callsubr
            return
          </CharString>
          <CharString index="227">
            -43 callgsubr
            307.00999450683594 228 callgsubr
            return
          </CharString>
          <CharString index="228">
            -26.990005493164062 return
          </CharString>
          <CharString index="229">
            42.99000549316406 return
          </CharString>
          <CharString index="230">
            19.009994506835938 return
          </CharString>
          <CharString index="231">
            -127.02000427246094 return
          </CharString>
          <CharString index="232">
            94.99000549316406 return
          </CharString>
          <CharString index="233">
            -113.00999450683594 return
          </CharString>
          <CharString index="234">
            99 callgsubr
            -0.9799957275390625 95 callsubr
            return
          </CharString>
          <CharString index="235">
            15 callsubr
            hstem
            -76 callgsubr
            return
          </CharString>
          <CharString index="236">
            81 113 callgsubr
            return
          </CharString>
          <CharString index="237">
            -95 callgsubr
            248.97999572753906 436.00001525878906 234.99000549316406 395.99998474121094 245 return
          </CharString>
          <CharString index="238">
            213.99000549316406 hstem
            -71 callsubr
            vstem
            return
          </CharString>
          <CharString index="239">
            -69 244 callsubr
            474.00999450683594 hmoveto
            77 callsubr
            return
          </CharString>
          <CharString index="240">
            -224 111 -138 214 296 187 177 callsubr
            257 209 -93 135 -231 vhcurveto
            return
          </CharString>
          <CharString index="241">
            28 callsubr
            -79 callsubr
            return
          </CharString>
          <CharString index="242">
            hstemhm
            65.99000549316406 364.00999450683594 return
          </CharString>
          <CharString index="243">
            348 35 callgsubr
            return
          </CharString>
          <CharString index="244">
            47 vvcurveto
            223.99000549316406 return
          </CharString>
          <CharString index="245">
            180 144 callgsubr
            return
          </CharString>
          <CharString index="246">
            339 135.010009765625 return
          </CharString>
          <CharString index="247">
            -158 249 -423 return
          </CharString>
          <CharString index="248">
            -49.99000549316406 return
          </CharString>
          <CharString index="249">
            -24.990005493164062 return
          </CharString>
          <CharString index="250">
            -72.99000549316406 return
          </CharString>
          <CharString index="251">
            235.99000549316406 return
          </CharString>
          <CharString index="252">
            -122 96.99000549316406 36 181 callgsubr
            140 52.99000549316406 13 callgsubr
            return
          </CharString>
          <CharString index="253">
            -25 callgsubr
            362.99000549316406 161.02000427246094 -100 116 -180 -62 callsubr
            hvcurveto
            return
          </CharString>
          <CharString index="254">
            4 callgsubr
            endchar
          </CharString>
          <CharString index="255">
            hhcurveto
            117 144 113.99000549316406 95.00999450683594 39 hvcurveto
            -34 callsubr
            145 rlineto
            return
          </CharString>
          <CharString index="256">
            114 callsubr
            -56 226 callsubr
            return
          </CharString>
          <CharString index="257">
            -72.00999450683594 return
          </CharString>
          <CharString index="258">
            147.99000549316406 return
          </CharString>
          <CharString index="259">
            -67.99000549316406 return
          </CharString>
          <CharString index="260">
            20.990005493164062 return
          </CharString>
          <CharString index="261">
            1312.990005493164 return
          </CharString>
          <CharString index="262">
            -107.00999450683594 return
          </CharString>
          <CharString index="263">
            99 callgsubr
            -1 95 callsubr
            return
          </CharString>
          <CharString index="264">
            hlineto
            181 1265.990005493164 351.99000549316406 264 callgsubr
            return
          </CharString>
          <CharString index="265" raw="1">
            f7321c04 7405fffe 99028f06 0e
          </CharString>
          <CharString index="266">
            1257.979995727539 rmoveto
            return
          </CharString>
          <CharString index="267">
            1631.990005493164 rmoveto
            return
          </CharString>
          <CharString index="268">
            1671.990005493164 rmoveto
            return
          </CharString>
          <CharString index="269">
            91 111 2 hvcurveto
            80 return
          </CharString>
          <CharString index="270">
            -86 115 -62 callsubr
            177 159 52 116 rlinecurve
            -183 -25 callgsubr
            return
          </CharString>
          <CharString index="271">
            139 callgsubr
            -2 return
          </CharString>
          <CharString index="272">
            hlineto
            43 -40 callgsubr
            return
          </CharString>
          <CharString index="273">
            -470.99000549316406 222 return
          </CharString>
          <CharString index="274">
            365.02000427246094 return
          </CharString>
          <CharString index="275">
            171.99000549316406 return
          </CharString>
          <CharString index="276">
            -136 42 44 54 46 232 callgsubr
            -1 rlinecurve
            hintmask 10100000
            -77 callsubr
            133 return
          </CharString>
          <CharString index="277">
            -59 callgsubr
            91 111 2 242 callgsubr
            return
          </CharString>
          <CharString index="278">
            -87 -108.99000549316406 -92 callsubr
            hvcurveto
            return
          </CharString>
          <CharString index="279">
            143 268.02000427246094 139.97999572753906 return
          </CharString>
          <CharString index="280">
            36 196 140 53 13 callgsubr
            return
          </CharString>
          <CharString index="281">
            -87 245 callgsubr
            return
          </CharString>
          <CharString index="282">
            1295.990005493164 rmoveto
            return
          </CharString>
          <CharString index="283">
            53 79 callgsubr
            return
          </CharString>
          <CharString index="284">
            257.97999572753906 return
          </CharString>
          <CharString index="285">
            -27.009994506835938 return
          </CharString>
          <CharString index="286">
            -333.99000549316406 return
          </CharString>
          <CharString index="287">
            287.97999572753906 return
          </CharString>
          <CharString index="288">
            75.97999572753906 return
          </CharString>
          <CharString index="289">
            135.99000549316406 return
          </CharString>
          <CharString index="290">
            161 34 callsubr
            -50 callgsubr
            1412.990005493164 vstem
            return
          </CharString>
          <CharString index="291">
            129 60 75 callsubr
            -64 81 return
          </CharString>
          <CharString index="292">
            38.99000549316406 hvcurveto
            72 callgsubr
            145 rlineto
            -52 -41.97999572753906 return
          </CharString>
          <CharString index="293">
            -110 -27 144 -172 hhcurveto
            -111 -150 -106 -91 -44.99000549316406 hvcurveto
            return
          </CharString>
          <CharString index="294">
            -27 callgsubr
            -75.02000427246094 vvcurveto
            -116 -18 -122 -23 -63 vhcurveto
            return
          </CharString>
          <CharString index="295">
            1782.990005493164 rmoveto
            106 -136 42 44 return
          </CharString>
          <CharString index="296">
            hstemhm
            64.97999572753906 353.99000549316406 return
          </CharString>
          <CharString index="297">
            -44.02000427246094 -23 vvcurveto
            return
          </CharString>
          <CharString index="298">
            -93 callsubr
            81 hhcurveto
            return
          </CharString>
          <CharString index="299">
            59.99000549316406 return
          </CharString>
          <CharString index="300">
            -205.99000549316406 return
          </CharString>
          <CharString index="301">
            79.99000549316406 return
          </CharString>
          <CharString index="302">
            -340.99000549316406 return
          </CharString>
          <CharString index="303">
            -252.99000549316406 return
          </CharString>
          <CharString index="304">
            rmoveto
            -62 callsubr
            275 rlineto
            -1556.990005493164 hlineto
            -28 -170 return
          </CharString>
          <CharString index="305">
            278 callgsubr
            227 callsubr
            81 hhcurveto
            return
          </CharString>
          <CharString index="306">
            1631.979995727539 363 hstem
            return
          </CharString>
          <CharString index="307">
            167 callgsubr
            -70 rlineto
            104 return
          </CharString>
          <CharString index="308">
            rmoveto
            -52 callgsubr
            return
          </CharString>
          <CharString index="309">
            883.9900054931641 hstem
            return
          </CharString>
          <CharString index="310">
            0 282.5 return
          </CharString>
          <CharString index="311">
            248.02000427246094 rlineto
            return
          </CharString>
          <CharString index="312">
            246 callsubr
            hstem
            151 callsubr
            1110.990005493164 vstem
            return
          </CharString>
          <CharString index="313">
            486.99000549316406 264.99000549316406 547.9999847412109 246 return
          </CharString>
          <CharString index="314">
            -73 callsubr
            211 callgsubr
            return
          </CharString>
          <CharString index="315">
            -95 callgsubr
            88 callgsubr
            return
          </CharString>
          <CharString index="316">
            rlineto
            989 hlineto
            37 62 callgsubr
            return
          </CharString>
          <CharString index="317">
            138.02000427246094 return
          </CharString>
          <CharString index="318">
            115.02000427246094 return
          </CharString>
          <CharString index="319">
            -125.99000549316406 return
          </CharString>
          <CharString index="320">
            252.99000549316406 return
          </CharString>
          <CharString index="321">
            362.97999572753906 return
          </CharString>
          <CharString index="322">
            -141.99000549316406 return
          </CharString>
          <CharString index="323">
            312.00999450683594 return
          </CharString>
          <CharString index="324">
            154.99000549316406 return
          </CharString>
          <CharString index="325">
            965.9799957275391 721.0200042724609 hstem
            215.97999572753906 return
          </CharString>
          <CharString index="326">
            2 -64 -29 callsubr
            -66 -87 return
          </CharString>
          <CharString index="327">
            hvcurveto
            -71 callgsubr
            2 -72 48 callsubr
            return
          </CharString>
          <CharString index="328">
            -392.00999450683594 486.00999450683594 485.99000549316406 return
          </CharString>
          <CharString index="329">
            -69 vvcurveto
            -129 -134 153 callgsubr
            -134 -2 vhcurveto
            return
          </CharString>
          <CharString index="330">
            -271 266 callgsubr
            return
          </CharString>
          <CharString index="331">
            hhcurveto
            -111 -140 -106 -91 return
          </CharString>
          <CharString index="332">
            -40 callsubr
            -342 hlineto
            return
          </CharString>
          <CharString index="333">
            -42 62 callsubr
            return
          </CharString>
          <CharString index="334">
            69 -68 callgsubr
            return
          </CharString>
          <CharString index="335">
            -206.99000549316406 rlineto
            return
          </CharString>
          <CharString index="336">
            128.99000549316406 return
          </CharString>
          <CharString index="337">
            -129.99000549316406 return
          </CharString>
          <CharString index="338">
            68.02000427246094 return
          </CharString>
          <CharString index="339">
            -63.02000427246094 return
          </CharString>
          <CharString index="340">
            34.970001220703125 return
          </CharString>
          <CharString index="341">
            -91.00999450683594 return
          </CharString>
          <CharString index="342">
            240.99000549316406 return
          </CharString>
          <CharString index="343">
            302.97999572753906 return
          </CharString>
          <CharString index="344">
            97.00999450683594 return
          </CharString>
          <CharString index="345">
            1634 rlineto
            return
          </CharString>
          <CharString index="346">
            -65 -49 155 callgsubr
            -98 124 callsubr
            hhcurveto
            return
          </CharString>
          <CharString index="347">
            -83 227 callgsubr
            -93 callsubr
            80 hhcurveto
            return
          </CharString>
          <CharString index="348">
            -64 45 callgsubr
            return
          </CharString>
          <CharString index="349">
            262 callsubr
            -274 return
          </CharString>
          <CharString index="350">
            -8 -104 -723.0099945068359 rlineto
            -367 hlineto
            endchar
          </CharString>
          <CharString index="351">
            -87 61 callgsubr
            return
          </CharString>
          <CharString index="352">
            194.99000549316406 return
          </CharString>
          <CharString index="353">
            269.49000549316406 return
          </CharString>
          <CharString index="354">
            181.99000549316406 return
          </CharString>
          <CharString index="355">
            210.99000549316406 return
          </CharString>
          <CharString index="356">
            -287.00999450683594 return
          </CharString>
          <CharString index="357">
            289.99000549316406 return
          </CharString>
          <CharString index="358">
            196 hhcurveto
            117 return
          </CharString>
          <CharString index="359">
            299.99000549316406 return
          </CharString>
          <CharString index="360">
            637 1372.990005493164 156.99000549316406 return
          </CharString>
          <CharString index="361">
            -186 280 callgsubr
            return
          </CharString>
          <CharString index="362">
            hintmask 00000000
            hintmask 11000000
            return
          </CharString>
          <CharString index="363">
            1299.990005493164 rmoveto
            return
          </CharString>
          <CharString index="364">
            -26 callgsubr
            hhcurveto
            return
          </CharString>
          <CharString index="365">
            -14 callgsubr
            hhcurveto
            return
          </CharString>
          <CharString index="366">
            hlineto
            192 callgsubr
            return
          </CharString>
          <CharString index="367">
            1549.979995727539 463.99000549316406 hstem
            return
          </CharString>
          <CharString index="368">
            -68 callgsubr
            -87 -108.99000549316406 return
          </CharString>
          <CharString index="369">
            16 callgsubr
            hstem
            return
          </CharString>
          <CharString index="370">
            1598.990005493164 414.97999572753906 hstem
            return
          </CharString>
          <CharString index="371">
            174 callsubr
            -83 -2 return
          </CharString>
          <CharString index="372">
            129 -50 callgsubr
            return
          </CharString>
          <CharString index="373">
            449 -209 -200 rlineto
            return
          </CharString>
          <CharString index="374">
            -13 vhcurveto
            -77 callsubr
            return
          </CharString>
          <CharString index="375">
            128.97999572753906 return
          </CharString>
          <CharString index="376">
            143.989990234375 return
          </CharString>
          <CharString index="377">
            113.00999450683594 return
          </CharString>
          <CharString index="378">
            926.9900054931641 return
          </CharString>
          <CharString index="379">
            614.9900054931641 return
          </CharString>
          <CharString index="380">
            375.99000549316406 return
          </CharString>
          <CharString index="381">
            51.02000427246094 return
          </CharString>
          <CharString index="382">
            320.97999572753906 return
          </CharString>
          <CharString index="383">
            -25 -117 -179 -99 -75 -184 hvcurveto
            return
          </CharString>
          <CharString index="384">
            161 -104 102.00999450683594 -236 return
          </CharString>
          <CharString index="385">
            hlineto
            49 callsubr
            -40 callsubr
            return
          </CharString>
          <CharString index="386">
            834.9900054931641 61 callsubr
            return
          </CharString>
          <CharString index="387">
            -95 callgsubr
            243.97999572753906 return
          </CharString>
          <CharString index="388">
            269 333.5 274 hstemhm
            return
          </CharString>
          <CharString index="389">
            -52 callgsubr
            -435.02000427246094 return
          </CharString>
          <CharString index="390">
            164 callsubr
            81 -74 return
          </CharString>
          <CharString index="391">
            1634 rmoveto
            -220 -1634 rlineto
            return
          </CharString>
          <CharString index="392">
            hintmask 00000000
            hintmask 11100000
            return
          </CharString>
          <CharString index="393">
            371 348 return
          </CharString>
        <CharString name=".notdef">
          521 0 49 callsubr
          973.989990234375 223 hstem
          213 callgsubr
          229 960 227 vstem
          213 callgsubr
          1415.990005493164 rmoveto
          -1415.990005493164 1416 1415.990005493164 -1416 vlineto
          357.99000549316406 -1197 rmoveto
          -128 144 358.00999450683594 342 -359 363.00999450683594 122.99000549316406 0 callsubr
          357 -367.99000549316406 352.00999450683594 366 128 -124 -363 275 callgsubr
          363 -368 -122 -122 -362 368 -347.02000427246094 -368 rlineto
          endchar
        </CharString>
        <CharString name="A">
          -42 callsubr
          hstem
          -123 180 callgsubr
          vstem
          938.9900054931641 -1 -102 callsubr
        </CharString>
        <CharString name="AE">
          633 110 callsubr
          -121 2105.979995727539 hintmask 10111000
          1948 1254.990005493164 197 callsubr
          242 254 callgsubr
          391.99000549316406 hlineto
          hintmask 11111000
          158 296 rlineto
          465 hlineto
          hintmask 10111000
          -42 -296 17 callgsubr
          hintmask 11111000
          -1385 -708.0200042724609 rmoveto
          391 731.0200042724609 80 243 callsubr
        </CharString>
        <CharString name="AEacute">
          645 110 callsubr
          -108.99000549316406 2105.979995727539 hintmask 10111000
          1567.990005493164 1826.979995727539 rmoveto
          -210 25 callgsubr
          143 -122 237 callsubr
          173 callsubr
          392.00999450683594 -571.9900054931641 197 callsubr
          88 callgsubr
          254 callgsubr
          273 callgsubr
          hlineto
          hintmask 11111000
          158 296 rlineto
          465 hlineto
          hintmask 10111000
          -42 -296 209 callsubr
          -633.0200042724609 -10 55 388 421.00999450683594 -8.990005493164062 35.99000549316406 276 -419 -5.0200042724609375 48 337 562.0099945068359 -92 callsubr
          rlineto
          hintmask 11111000
          -1385 -708.0200042724609 rmoveto
          390.99000549316406 731.0200042724609 -14 callgsubr
          243 callsubr
        </CharString>
        <CharString name="Aacute">
          -42 callsubr
          hstem
          -123 180 callgsubr
          vstem
          1211.990005493164 1826.979995727539 rmoveto
          -210 25 callgsubr
          151 callgsubr
          -122 97 36 -43 callgsubr
          140 53 13 callgsubr
          -273 -1827.979995727539 -102 callsubr
        </CharString>
        <CharString name="Abreve">
          -42 callsubr
          103.00001525878906 217 hstem
          520.9900054931641 -43 callgsubr
          307.0199890136719 228 callgsubr
          844.9799957275391 1632.990005493164 rmoveto
          255 109.02000427246094 188 -5 callsubr
          11 0 12 -1 11 hvcurveto
          -183.99000549316406 hlineto
          -80 -13 -32.02000427246094 -46 callsubr
          229 callgsubr
          -180 84 -116 239.99000549316406 vhcurveto
          94 -1633.990005493164 -102 callsubr
        </CharString>
        <CharString name="Acircumflex">
          -42 callsubr
          hstem
          -123 180 callgsubr
          vstem
          891.9900054931641 1765.990005493164 rmoveto
          -45 callsubr
          112 callsubr
          286.99000549316406 167 rlineto
          47 -1766.990005493164 -102 callsubr
        </CharString>
        <CharString name="Adieresis">
          -42 callsubr
          0 callgsubr
          363 hstem
          433.99000549316406 282 callgsubr
          583.9900054931641 160 callsubr
          -58 callgsubr
          -82.99000549316406 227 callgsubr
          -68 callgsubr
          80 hhcurveto
          472 hmoveto
          73 callgsubr
          198 callsubr
          -117 -1632.990005493164 -102 callsubr
        </CharString>
        <CharString name="Agrave">
          -42 callsubr
          hstem
          -123 180 callgsubr
          vstem
          806.9900054931641 1549.990005493164 rmoveto
          143 122 -279 342 -210 -187 176 callsubr
          196 -140 237 callsubr
          -36 rlinecurve
          132 -1550.990005493164 -102 callsubr
        </CharString>
        <CharString name="Amacron">
          -42 callsubr
          176.99000549316406 257 callgsubr
          -123 180 callgsubr
          vstem
          1146 162 callgsubr
          -577 hlineto
          -23 callsubr
          -209 rlineto
          577 hlineto
          20 209 rlineto
          -207 -1916.990005493164 -102 callsubr
        </CharString>
        <CharString name="Aogonek">
          6 112 callgsubr
          562.9700012207031 241 794 209.00999450683594 hstemhm
          722.9799957275391 281 256 callgsubr
          1070.979995727539 -276.99000549316406 rmoveto
          -39 -28 69 callgsubr
          -38 callsubr
          hlineto
          22 callsubr
          -739.9799957275391 -1531 390 1 116.99000549316406 103 callsubr
          523.0200042724609 hlineto
          31.990005493164062 -286.97999572753906 rlineto
          46 hlineto
          -97 -42 -177 230 callsubr
          -143.02000427246094 66 callgsubr
          -576.9900054931641 803.9799957275391 rmoveto
          275.99000549316406 675 39 118.99000549316406 6 -34 callsubr
          76 -675 rlineto
          -396.99000549316406 hlineto
          endchar
        </CharString>
        <CharString name="Aring">
          -6 49 callgsubr
          241 1351.010009765625 182 callsubr
          hstem
          505.99000549316406 -43 callgsubr
          304.99998474121094 195 vstem
          938.9900054931641 -1 rmoveto
          355 1 104 callgsubr
          -7 hlineto
          83 50 59 83 117.99000549316406 vvcurveto
          159 -129 74 -47 callgsubr
          -156.02000427246094 -233.99000549316406 -68 -235 -86 40 -64 -61 callsubr
          -40 vhcurveto
          -735.9900054931641 -1521.990005493164 390 1 117 103 callsubr
          523 hlineto
          31.990005493164062 -286.97999572753906 rlineto
          -68 1879 rmoveto
          70 65.99000549316406 -52 87 callgsubr
          148 callgsubr
          hvcurveto
          -389 -1351 rmoveto
          275.99000549316406 675 39 118.99000549316406 5.9799957275390625 -34 callsubr
          76 -675 rlineto
          -396.99000549316406 hlineto
          endchar
        </CharString>
        <CharString name="Atilde">
          -42 callsubr
          62.00001525878906 -19 callsubr
          -123 1467 hintmask 10101000
          709.9799957275391 1735.990005493164 rmoveto
          -77 callsubr
          133.02000427246094 5 -141 196 3 callgsubr
          hintmask 10011000
          -110 121 callsubr
          144 -172.02000427246094 hhcurveto
          -111 -150 -106 -91 -45 hvcurveto
          106 -136 rlineto
          hintmask 10101000
          41.99000549316406 44 54 46 68 -1 rrcurveto
          hintmask 11101000
          -93 193 callsubr
          rmoveto
          -739.9799957275391 -1531 390 1 117 103 callsubr
          523 hlineto
          31.990005493164062 -286.97999572753906 355 1 22 callsubr
          -134.99000549316406 -1003 rmoveto
          275.99000549316406 675 39 118.99000549316406 5.9799957275390625 -34 callsubr
          76 -675 rlineto
          -396.99000549316406 hlineto
          endchar
        </CharString>
        <CharString name="B">
          1 130 callsubr
          hstemhm
          896 273 callsubr
          -343 364.99000549316406 hintmask 11110000
          991.9900054931641 803.9799957275391 rmoveto
          hintmask 11101000
          68 callgsubr
          -91 callgsubr
          217 callsubr
          hlineto
          74.02000427246094 151 -95 callgsubr
          80 hhcurveto
          hintmask 11110000
          451.00999450683594 289 146 callsubr
          hintmask 11101000
          -346 109 callgsubr
          63 callgsubr
          276 callsubr
          hintmask 11110000
          -64 -671 rmoveto
          65 callgsubr
          -50 198 callgsubr
          186.99000549316406 247 callgsubr
          -44 -151 -199 -128 -42 -186.02000427246094 hvcurveto
          endchar
        </CharString>
        <CharString name="C">
          -11 callgsubr
          895 1545.990005493164 -96 callsubr
        </CharString>
        <CharString name="CR">
          -1351 endchar
        </CharString>
        <CharString name="Cacute">
          -11 callgsubr
          759.9900054931641 161 callsubr
          166 callgsubr
          122 callgsubr
          -80 callsubr
          135 -126 -96 callsubr
        </CharString>
        <CharString name="Ccaron">
          -11 callgsubr
          529.9799957275391 -11 callsubr
          249 callsubr
          24 callsubr
          167 callsubr
          -390 -96 callsubr
        </CharString>
        <CharString name="Ccedilla">
          -159 -468.99000549316406 221.97999572753906 1493.990005493164 299 205 callgsubr
          361 75 -66 callsubr
          vstem
          857.9900054931641 1246.990005493164 rmoveto
          150 96.00999450683594 -70 -36 41 hvcurveto
          0 callgsubr
          335.00999450683594 -53 13.990005493164062 rlineto
          21.009994506835938 -51 -94 35 -153.99000549316406 hhcurveto
          -481.02000427246094 -331 -423.02000427246094 -499 -288.99000549316406 271 callgsubr
          -292 331.99000549316406 -50.99000549316406 hvcurveto
          3 -29.990005493164062 1 -41 -3 -43 rrcurveto
          -104 -6 143 callsubr
          -21.009994506835938 -103 hhcurveto
          -32 -30 8 8.009994506835938 -17 hvcurveto
          -36 -203 rlineto
          -16.020004272460938 23 164 -18.990005493164062 251 callgsubr
          -56 callsubr
          132.02000427246094 63 -15 callgsubr
          0 callgsubr
          -22 61 hvcurveto
          175 21.970001220703125 140.97999572753906 -26 callgsubr
          36 26.990005493164062 -46 249 rcurveline
          -37.99000549316406 -52 -127 -52 -129 hhcurveto
          -198 -77 115 239 304 -4 callsubr
          318 252 callsubr
          hvcurveto
          endchar
        </CharString>
        <CharString name="Ccircumflex">
          -11 callgsubr
          494 1665.990005493164 rmoveto
          151 callsubr
          -35 callsubr
          -371 -348 rlineto
          401 -120 -96 callsubr
        </CharString>
        <CharString name="Cdotaccent">
          -147 -95 callgsubr
          286.97999572753906 975.9900054931641 299 66 363 hstem
          125 callsubr
          361 243.989990234375 392 vstem
          699.9900054931641 283 callgsubr
          75.99000549316406 -42 callgsubr
          -2 hvcurveto
          207 -233 rmoveto
          -481.02000427246094 -331 -423.02000427246094 -499 -317.99000549316406 115 callgsubr
          -321.97999572753906 416.99000549316406 217 188.99000549316406 95.97999572753906 31.990005493164062 42 hvcurveto
          -46 249 rlineto
          -37.99000549316406 -52 -127 -52 -129 hhcurveto
          -198 -77 115 239 304 -4 callsubr
          318 300 150 96.00999450683594 -70 -36 41 hvcurveto
          0 callgsubr
          335.00999450683594 -53 13.990005493164062 rlineto
          21.009994506835938 -51 -94 35 -153.99000549316406 hhcurveto
          endchar
        </CharString>
        <CharString name="D">
          72 85 callgsubr
          hstem
          1050.990005493164 -26 callsubr
          vstem
          833.9900054931641 1545.990005493164 -17 callsubr
          -215 -1303 11 callgsubr
        </CharString>
        <CharString name="Dcaron">
          84 85 callgsubr
          hstem
          1062.990005493164 -26 callsubr
          vstem
          953 1599 rmoveto
          371 136 callsubr
          -286.97999572753906 -63 callsubr
          45 callsubr
          155 callsubr
          -53 -64 callsubr
        </CharString>
        <CharString name="Dcroat">
          -84 callsubr
        </CharString>
        <CharString name="E">
          -147 0 -72 callsubr
          hstem
          -49 callgsubr
          1132.990005493164 vstem
          212 callgsubr
          1530 -100 callgsubr
        </CharString>
        <CharString name="Eacute">
          -147 0 -72 callsubr
          hstem
          -49 callgsubr
          1132.990005493164 vstem
          660.9900054931641 161 callsubr
          166 callgsubr
          122 callgsubr
          -80 callsubr
          -370.02000427246094 215 callsubr
          -100 callgsubr
        </CharString>
        <CharString name="Ebreve">
          -147 0 -72 callsubr
          103 217 hstem
          458.99000549316406 30 callsubr
          vstem
          459 1928.990005493164 58 callgsubr
          11 0 12 -5 callgsubr
          11 vhcurveto
          -184 hlineto
          -80 -58 callsubr
          16 2 15.009994506835938 -79 callsubr
          226 callgsubr
          -187.99000549316406 hlineto
          -5.0200042724609375 -18 -6.9900054931640625 -44 -23 vvcurveto
          -168.02000427246094 -399 -100 callgsubr
        </CharString>
        <CharString name="Ecaron">
          -147 0 -72 callsubr
          hstem
          -49 callgsubr
          1132.990005493164 vstem
          430.97999572753906 -11 callsubr
          249 callsubr
          -47 callgsubr
          -182.99000549316406 176.99000549316406 -145.02000427246094 -77.99000549316406 rlineto
          -140 -406 -100 callgsubr
        </CharString>
        <CharString name="Ecircumflex">
          -147 0 -72 callsubr
          hstem
          -49 callgsubr
          1132.990005493164 vstem
          395 1665.990005493164 rmoveto
          151 callsubr
          -35 callsubr
          -371 -348 rlineto
          -104.02000427246094 -135.99000549316406 -100 callgsubr
        </CharString>
        <CharString name="Edieresis">
          -147 0 -72 callsubr
          101.989990234375 363 hstem
          371.99000549316406 172 callgsubr
          vstem
          372 255 callgsubr
          72 -68 callgsubr
          80 hhcurveto
          -60 callgsubr
          57.02000427246094 75 callsubr
          -61 45 callgsubr
          -69 117 callgsubr
          473.99000549316406 hmoveto
          204 callgsubr
          69.02000427246094 -68 callgsubr
          81 hhcurveto
          268 callsubr
          23 callsubr
          -65.99000549316406 244 callsubr
          -555.0099945068359 -268.97999572753906 -100 callgsubr
        </CharString>
        <CharString name="Edotaccent">
          -147 0 -72 callsubr
          201 callgsubr
          588.9799957275391 392 hintmask 00000000
          hintmask 11111000
          588.9799957275391 1779 rmoveto
          43 callsubr
          99.99000549316406 hhcurveto
          143 -49 callgsubr
          91.00999450683594 111 3 hvcurveto
          87 2 -52 callsubr
          74 -117 hhcurveto
          152 callgsubr
          -1 callsubr
          -2 hvcurveto
          -298 -249 -100 callgsubr
        </CharString>
        <CharString name="Egrave">
          -147 0 -72 callsubr
          hstem
          -49 callgsubr
          1132.990005493164 vstem
          398.99000549316406 42 callsubr
          196 -140 97 -36 143 44 callgsubr
          -108.02000427246094 -296.97999572753906 -100 callgsubr
        </CharString>
        <CharString name="Emacron">
          -147 0 -72 callsubr
          176.989990234375 257 callgsubr
          -49 callgsubr
          1132.990005493164 vstem
          506.97999572753906 162 callgsubr
          93 callgsubr
          -577 hlineto
          -216 -385.99000549316406 -100 callgsubr
        </CharString>
        <CharString name="Eng">
          161 -414 1944 hstem
          -50 callgsubr
          1412.990005493164 vstem
          1154.990005493164 1530 rmoveto
          -97 -792 -13 -260.02000427246094 56 callgsubr
          260.02000427246094 -355.99000549316406 792 rlineto
          -307.02000427246094 hlineto
          -219 -25 callsubr
          327.99000549316406 -786 -22 -147.99000549316406 -69 -92 -232 -93 rlinecurve
          57 -128 348 25 200 245 callsubr
          35 194 rlinecurve
          219 225 callsubr
          endchar
        </CharString>
        <CharString name="Eogonek">
          -135 112 callgsubr
          276.99000549316406 -72 callsubr
          hstemhm
          -50 callgsubr
          1132.990005493164 -664.0000152587891 281 hintmask 01111000
          1180 1254.990005493164 rmoveto
          -62 callsubr
          275 rlineto
          -914 hlineto
          258 callgsubr
          745 hlineto
          hintmask 11110100
          -27 callgsubr
          -41 -180.02000427246094 71 callgsubr
          -144.02000427246094 vvcurveto
          -105 84 174 callgsubr
          103 40 83 81 vhcurveto
          -41 114 callsubr
          -55.99000549316406 226 callsubr
          153 callgsubr
          hhcurveto
          -39.02000427246094 -28 69 callgsubr
          -7 216 callgsubr
          37 279 -24 callgsubr
          421.00999450683594 -8.990005493164062 36 276 -419 -5.0200042724609375 47.99000549316406 337 rlineto
          hintmask 01111000
          562.0200042724609 -92 callsubr
          rlineto
          endchar
        </CharString>
        <CharString name="Eth">
          -84 callsubr
        </CharString>
        <CharString name="Euro">
          38 -95 callgsubr
          231.97999572753906 307.99000549316406 182 154.010009765625 247 callsubr
          249.99998474121094 254 hstem
          23 1286 vstem
          994.9799957275391 1545.990005493164 rmoveto
          -320 -263.97999572753906 -193 -311.00999450683594 -121 hvcurveto
          -203 hlineto
          -19 -181.99000549316406 rlineto
          121 callgsubr
          hlineto
          -8.990005493164062 -49 -7 -52 -92 callsubr
          -53 rrcurveto
          -179.02000427246094 hlineto
          -18.990005493164062 -182 rlineto
          202 hlineto
          -278 30 148.99000549316406 -261.97999572753906 374 hhcurveto
          38 callgsubr
          165 74.97000122070312 -14 callgsubr
          71 hvcurveto
          -70 200.99000549316406 rlineto
          -61.99000549316406 -80 64 callgsubr
          -62.02000427246094 71 callgsubr
          hhcurveto
          -163 -83 270 callsubr
          245 callsubr
          -18 hvcurveto
          489 hlineto
          105 callgsubr
          182 rlineto
          -505 hlineto
          4 54 7 51 10.020004272460938 49 rrcurveto
          504 hlineto
          19 247 callsubr
          rlineto
          -464.02000427246094 hlineto
          153 72 114 97 147 hhcurveto
          113 106 -41 -28 24.990005493164062 hvcurveto
          74.02000427246094 269 rlineto
          23 -78 -70 31 -166.02000427246094 hhcurveto
          endchar
        </CharString>
        <CharString name="F">
          188 callgsubr
          hstem
          -49 callgsubr
          1075.990005493164 vstem
          212 callgsubr
          1530 36 callsubr
        </CharString>
        <CharString name="G">
          76 -83 callsubr
          hstem
          82 callgsubr
          vstem
          726 570 rmoveto
          -90 callsubr
          -98 callgsubr
          endchar
        </CharString>
        <CharString name="Gbreve">
          88 -83 callsubr
          87.00001525878906 217 hstem
          86 358.99000549316406 183 30 callsubr
          vstem
          951.9900054931641 1632.990005493164 rmoveto
          255 109 188 -5 callsubr
          11 0 12 -1 11 hvcurveto
          -183.99000549316406 hlineto
          -80 -58 callsubr
          16 2 15.009994506835938 -79 callsubr
          226 callgsubr
          -187.99000549316406 hlineto
          -5.0200042724609375 -18 -6.9900054931640625 -44 -23 vvcurveto
          58 callsubr
          vhcurveto
          -214 -1063 -94 callgsubr
          endchar
        </CharString>
        <CharString name="Gcaron">
          76 -83 callsubr
          hstem
          82 callgsubr
          vstem
          979.9900054931641 1599 rmoveto
          286 callsubr
          -147.99000549316406 1 callsubr
          -145.02000427246094 -77.99000549316406 45 callsubr
          -104 -342.02000427246094 rmoveto
          -98 callgsubr
          -90 callsubr
          endchar
        </CharString>
        <CharString name="Gcircumflex">
          76 -83 callsubr
          hstem
          82 callgsubr
          vstem
          986.9900054931641 1765.990005493164 rmoveto
          -63 callgsubr
          -371 -348 151 callsubr
          -68 callsubr
          287 167 rlineto
          -261 -1196 rmoveto
          -90 callsubr
          -98 callgsubr
          endchar
        </CharString>
        <CharString name="Gcommaaccent">
          88 -83 callsubr
          hstem
          86 358.99000549316406 210 258 vstem
          738 570 -94 callgsubr
          16 -607 2 callsubr
        </CharString>
        <CharString name="Gdotaccent">
          88 -83 callsubr
          65.99000549316406 363 hstem
          86 358.99000549316406 312.989990234375 392 vstem
          931.9799957275391 215 callgsubr
          rmoveto
          -22 callsubr
          43 callsubr
          252 callgsubr
          hhcurveto
          -193.99000549316406 -1041.990005493164 -94 callgsubr
          endchar
        </CharString>
        <CharString name="Gtilde">
          76 -83 callsubr
          46.00001525878906 -19 callsubr
          82 callgsubr
          hintmask 00000000
          hintmask 11110100
          1320 1945.990005493164 rmoveto
          -52 -42 -45 -58 -83 hhcurveto
          hintmask 11101100
          -110 178 callsubr
          144 129 callgsubr
          -150 -106 -91 -45 hvcurveto
          105.99000549316406 -136 42 44 54 46 68 -1 rlinecurve
          hintmask 11110100
          208 callgsubr
          181 callgsubr
          148 callsubr
          hintmask 11100100
          -444 -689 rmoveto
          -98 callgsubr
          -90 callsubr
          endchar
        </CharString>
        <CharString name="H">
          156 callgsubr
          1114.990005493164 1530 3 callsubr
        </CharString>
        <CharString name="Hbar">
          161 440.99000549316406 251 225 251 hstem
          -1 1639.990005493164 vstem
          1638.990005493164 1167.990005493164 rmoveto
          -194 hlineto
          52 362 rlineto
          275 callgsubr
          hlineto
          -52 -362 rlineto
          -482 hlineto
          52 362 60 callgsubr
          -52 -362 rlineto
          -227 hlineto
          -24.979995727539062 -251 rlineto
          216 hlineto
          -131 -916.9900054931641 rlineto
          354 hlineto
          63 441 rlineto
          482.02000427246094 hlineto
          232 callsubr
          -441 rlineto
          358.00999450683594 hlineto
          130.99000549316406 916.9900054931641 rlineto
          204 hlineto
          26.009994506835938 251 rlineto
          -620.0099945068359 -476 rmoveto
          -482 hlineto
          32 225 rlineto
          482 hlineto
          -32 -225 rlineto
          endchar
        </CharString>
        <CharString name="Hcircumflex">
          156 callgsubr
          937.9799957275391 1765.990005493164 rmoveto
          -45 callsubr
          112 callsubr
          286.97999572753906 167 rlineto
          177 -236 3 callsubr
        </CharString>
        <CharString name="I">
          -645 191 callgsubr
          98 572.9799957275391 vstem
          316.97999572753906 1530 -87 callgsubr
          endchar
        </CharString>
        <CharString name="I.uc">
          -54 callgsubr
        </CharString>
        <CharString name="IJ">
          52 -357 1887 hstem
          98 1275 vstem
          316.97999572753906 1530 -47 callsubr
        </CharString>
        <CharString name="IJ_acutecomb">
          52 -357 2370.990005493164 hstem
          98 1469.990005493164 vstem
          401.97999572753906 161 callsubr
          143 -122 97 -80 callsubr
          677 hmoveto
          143 -122 237 callsubr
          -80 callsubr
          -762 215 callsubr
          -47 callsubr
        </CharString>
        <CharString name="Iacute">
          -645 34 callsubr
          98 792.9799957275391 vstem
          401.97999572753906 161 callsubr
          143 -122 97 -80 callsubr
          -85 215 callsubr
          -87 callgsubr
          endchar
        </CharString>
        <CharString name="Ibreve">
          -645 1632.990005493164 217 hstem
          199.99000549316406 120 callsubr
          199.99000549316406 -30 callgsubr
          117 -399 -87 callgsubr
          endchar
        </CharString>
        <CharString name="Icircumflex">
          -645 34 callsubr
          98 800.9900054931641 vstem
          182 callsubr
          100 callsubr
          286.97999572753906 167 -45 callsubr
          rlineto
          181 -135.99000549316406 -87 callgsubr
          endchar
        </CharString>
        <CharString name="Idieresis">
          -645 199 callsubr
          237 callgsubr
          339 135 169 callgsubr
          vstem
          237 callgsubr
          255 callgsubr
          72 -68 callgsubr
          80 hhcurveto
          -58 callgsubr
          474.00999450683594 hmoveto
          204 callgsubr
          69 -84.00999450683594 81 hhcurveto
          184 callsubr
          -27 callgsubr
          hhcurveto
          -113.00999450683594 -66.00999450683594 117 callgsubr
          -270.00999450683594 -268.97999572753906 -87 callgsubr
          endchar
        </CharString>
        <CharString name="Idotaccent">
          -54 callgsubr
        </CharString>
        <CharString name="Igrave">
          -645 34 callsubr
          98 572.9799957275391 vstem
          139.97999572753906 42 callsubr
          181 callgsubr
          -140 97 -36 -25 callgsubr
          44 callgsubr
          177 -296.97999572753906 -87 callgsubr
          endchar
        </CharString>
        <CharString name="Imacron">
          -645 189 callgsubr
          98 726.9900054931641 vstem
          80 callgsubr
          26 callsubr
          69 -385.99000549316406 -87 callgsubr
          endchar
        </CharString>
        <CharString name="Iogonek">
          -645 112 callgsubr
          hstemhm
          -165.99000549316406 280.97999572753906 255 callsubr
          360.97999572753906 hmoveto
          91.00999450683594 hlineto
          219 -40 callsubr
          -354 hlineto
          -91 callgsubr
          12 hlineto
          64 callgsubr
          -41 -179.97999572753906 71 callgsubr
          -144.02000427246094 vvcurveto
          -105 -50 callgsubr
          -56 callgsubr
          268 callsubr
          145.02000427246094 250 callgsubr
          40 83 81 vhcurveto
          -41 174.99000549316406 rlineto
          -44 -56 -42 91 callsubr
        </CharString>
        <CharString name="Itilde">
          -645 1591.990005493164 -19 callsubr
          98 924.9900054931641 hintmask 00000000
          hintmask 01100000
          118.99000549316406 158 callgsubr
          hintmask 10100000
          208 callgsubr
          -43 callgsubr
          3 callgsubr
          hintmask 01100000
          -110 121 callsubr
          144 -172 hhcurveto
          -110.99000549316406 -150.02000427246094 -106 -91 -45 hvcurveto
          198 196 callsubr
          -87 callgsubr
          endchar
        </CharString>
        <CharString name="J">
          -654 -357 1887 hstem
          -179.99000549316406 846.9900054931641 vstem
          310.97999572753906 1530 -32 callsubr
        </CharString>
        <CharString name="Jcircumflex">
          -654 -357 2370.990005493164 hstem
          -179.99000549316406 1056.990005493164 vstem
          113.99000549316406 1665.990005493164 rmoveto
          151 callsubr
          -68 callsubr
          287 167 -45 callsubr
          rlineto
          197 -135.99000549316406 -32 callsubr
        </CharString>
        <CharString name="K">
          -14 -1 1531 hstem
          -49 callgsubr
          1408 vstem
          873.9799957275391 185 callgsubr
          -526 -662.0200042724609 95 662.0200042724609 60 callgsubr
          -218.99000549316406 132 callgsubr
          65 -149 58 -131 17 50 callsubr
          endchar
        </CharString>
        <CharString name="Kcommaaccent">
          -2 -557.9900054931641 2088 hstem
          551.9900054931641 177 callsubr
          vstem
          885.9900054931641 185 callgsubr
          -526.0099945068359 -662.0200042724609 95 662.0200042724609 rlineto
          -354.02000427246094 hlineto
          -219 132 callgsubr
          64.99000549316406 -149 58 -131 17.020004272460938 50 callsubr
          -234.99000549316406 -891.9900054931641 184 callgsubr
          -71.99000549316406 -46 -44 -23.020004272460938 267 callsubr
          -44 callsubr
          200 callsubr
          19 0 callsubr
          121 121 callgsubr
          vvcurveto
          105 152 callsubr
          88 -91 19 vhcurveto
          endchar
        </CharString>
        <CharString name="L">
          -283 266 callgsubr
          -49 callgsubr
          889.9900054931641 vstem
          212 callgsubr
          1530 -64 callgsubr
          endchar
        </CharString>
        <CharString name="Lacute">
          223 callsubr
          -50 callgsubr
          889.9900054931641 vstem
          420.99000549316406 1673.990005493164 rmoveto
          143 -122 97 -80 callsubr
          -118 -144 97 callsubr
          endchar
        </CharString>
        <CharString name="Lcaron">
          223 callsubr
          882.9900054931641 263 vstem
          841.9900054931641 1059.979995727539 rmoveto
          6 142 callsubr
          151 194 callgsubr
          rlineto
          95.99000549316406 101 274 callsubr
          199 156 vvcurveto
          80 -13 82 -15 callsubr
          123 callgsubr
          vhcurveto
          -228.99000549316406 -48 -19 -42 rlineto
          79 callsubr
          -30 4.0200042724609375 -27 callgsubr
          -75 vvcurveto
          -116 -18 -122.02000427246094 -23 -63 vhcurveto
          -551.0200042724609 470.02000427246094 -64 callgsubr
          endchar
        </CharString>
        <CharString name="Lcommaaccent">
          223 callsubr
          -26 callsubr
          258 vstem
          236 callsubr
          1530 97 callsubr
          -6.9900054931640625 -1761.990005493164 rmoveto
          40 -4 28 -47 -50 vvcurveto
          -71.99000549316406 -46 -44 -23 -13 vhcurveto
          -3 -44 callsubr
          200 callsubr
          19 115 callgsubr
          121 121 callgsubr
          vvcurveto
          105 -68.02000427246094 88 -90.99000549316406 19 vhcurveto
          119 callgsubr
          endchar
        </CharString>
        <CharString name="Ldot">
          -175 203 callsubr
          464.47999572753906 367 hstemhm
          -49 callgsubr
          1101 -369.010009765625 369 hintmask 10100000
          212 callgsubr
          1530 -64 callgsubr
          hintmask 11010000
          721.0200042724609 -416.00999450683594 rmoveto
          -129 -79.02000427246094 -102.99000549316406 -112 -89.00999450683594 59 -63 122 callgsubr
          268 callsubr
          63 callgsubr
          87 131 80 -43 69 -43 callsubr
          hvcurveto
          endchar
        </CharString>
        <CharString name="Lslash">
          -271 -79 callsubr
          282.52000427246094 hstem
          -31 1014.9799957275391 vstem
          532.9900054931641 665.9900054931641 rmoveto
          450.99000549316406 154 -57 192.99000549316406 -362.99000549316406 -127 93 646 60 callgsubr
          -110.97999572753906 -776.9900054931641 -223 248 callgsubr
          58 -184 134 46 -77 -537 rlineto
          848 hlineto
          42 288.00999450683594 161 callgsubr
          56 87 callsubr
          rlineto
          endchar
        </CharString>
        <CharString name="M">
          253 callsubr
          hstem
          -31 1927.979995727539 vstem
          387.99000549316406 1530 -49 callsubr
        </CharString>
        <CharString name="N">
          149 191 callgsubr
          -49 callgsubr
          1412.990005493164 vstem
          212 callgsubr
          1530 -88 callsubr
          endchar
        </CharString>
        <CharString name="NULL">
          -1351 endchar
        </CharString>
        <CharString name="Nacute">
          183 callsubr
          757.9900054931641 161 callsubr
          143 -122 97 36 -43 callgsubr
          140 53 13 callgsubr
          -210 25 callgsubr
          rlineto
          -455 215 callsubr
          -86 callgsubr
          endchar
        </CharString>
        <CharString name="Ncaron">
          183 callsubr
          547.9799957275391 -37 callsubr
          -245 -406 -86 callgsubr
          endchar
        </CharString>
        <CharString name="Ncommaaccent">
          161 -560 2090 hstem
          608.9900054931641 177 callsubr
          vstem
          236 callsubr
          1530 -86 callgsubr
          238.02000427246094 -1764 rmoveto
          40 -4 28 -47 -50 vvcurveto
          -72 -46 -44 -23 -13 vhcurveto
          -3 47 callgsubr
          152 callsubr
          88 -91 98 callsubr
        </CharString>
        <CharString name="Ntilde">
          161 1591.990005493164 -19 callsubr
          -50 callgsubr
          1412.990005493164 hintmask 00000000
          hintmask 01100000
          494.97999572753906 1782.990005493164 rmoveto
          106 169 callsubr
          5 -141 181 callgsubr
          hhcurveto
          117 143.99000549316406 113.99000549316406 95.00999450683594 173 callgsubr
          195 callgsubr
          -58 71 callsubr
          hhcurveto
          hintmask 01100000
          131 callgsubr
          -192 196 callsubr
          -86 callgsubr
          endchar
        </CharString>
        <CharString name="O">
          -75 callgsubr
          65.99000549316406 577.9900054931641 -105 callsubr
        </CharString>
        <CharString name="OE">
          860 -95 callgsubr
          -27 callsubr
          -250 -72 callsubr
          -249.99000549316406 -27 callsubr
          135 callsubr
          hintmask 01110100
          2175 1254.990005493164 rmoveto
          -62 callsubr
          275 rlineto
          -914 hlineto
          54 callsubr
          -216 rlineto
          hintmask 10101100
          140.99000549316406 -88 -149 91.00999450683594 -209 263 callgsubr
          -446.00999450683594 -522 -325 183 -268.97999572753906 368.99000549316406 200 165 80.97000122070312 134 217 callgsubr
          hvcurveto
          hintmask 01110100
          -28 -198.97999572753906 17 callgsubr
          hintmask 10101100
          -1529.020004272461 -1005 rmoveto
          -139.99000549316406 -76 81 264.99000549316406 305.00999450683594 -60 callgsubr
          379 223 141 76 -4 callgsubr
          -264.99000549316406 18 callsubr
          hvcurveto
          endchar
        </CharString>
        <CharString name="Oacute">
          -75 callgsubr
          768.9799957275391 161 callsubr
          143 -122 97 -80 callsubr
          -703 -1094 -105 callsubr
        </CharString>
        <CharString name="Obreve">
          40 callgsubr
          87 217 135 callsubr
          136.97999572753906 -43 callgsubr
          237.02000427246094 -26 callsubr
          -293.99000549316406 107 callgsubr
          hintmask 11111100
          566.9900054931641 1928.990005493164 77 callgsubr
          vhcurveto
          hintmask 11111010
          255.02000427246094 109 188 -5 callsubr
          11 0 12 -1 11 hvcurveto
          -184 hlineto
          -80 -13 -32 -46 callsubr
          hintmask 11111100
          229 callgsubr
          -501 -1351 -105 callsubr
        </CharString>
        <CharString name="Ocircumflex">
          -75 callgsubr
          502.99000549316406 100 callsubr
          286.97999572753906 167 -45 callsubr
          rlineto
          -437 -1088 -105 callsubr
        </CharString>
        <CharString name="Odieresis">
          40 callgsubr
          85.989990234375 363 135 callsubr
          49.97999572753906 139 callsubr
          169 callgsubr
          -292.97999572753906 -26 callsubr
          hintmask 00000000
          hintmask 11111100
          479.99000549316406 255 callgsubr
          72.00999450683594 -68 callgsubr
          80 hhcurveto
          -58 callgsubr
          474.00999450683594 hmoveto
          204 callgsubr
          69 -84.00999450683594 81 hhcurveto
          80 callsubr
          -92 callsubr
          hvcurveto
          hintmask 11110010
          -888.0099945068359 -1221 -105 callsubr
        </CharString>
        <CharString name="Ograve">
          -75 callgsubr
          506.97999572753906 42 callsubr
          181 callgsubr
          -140 97 -36 -25 callgsubr
          44 callgsubr
          -441 -1248.990005493164 -105 callsubr
        </CharString>
        <CharString name="Ohungarumlaut">
          -75 callgsubr
          479.99000549316406 1644.990005493164 rmoveto
          123 163 callsubr
          -284 -368.99000549316406 rlineto
          494 98 callgsubr
          -908 -1067 -105 callsubr
        </CharString>
        <CharString name="Omacron">
          40 callgsubr
          160.989990234375 257 callgsubr
          65.99000549316406 364.00999450683594 569.9900054931641 -26 callsubr
          vstem
          272 callsubr
          26 callsubr
          -549 -1338 -105 callsubr
        </CharString>
        <CharString name="Oslash">
          42 -14 -27 callsubr
          1029.989990234375 -27 callsubr
          hstem
          65.99000549316406 364.00999450683594 569.9900054931641 -26 callsubr
          vstem
          1182.990005493164 1417.990005493164 -85 callsubr
        </CharString>
        <CharString name="Oslashacute">
          42 -14 -27 callsubr
          1029.989990234375 -27 callsubr
          hstem
          65.99000549316406 364.00999450683594 569.9900054931641 -26 callsubr
          vstem
          1146.979995727539 1826.979995727539 rmoveto
          -210 25 callgsubr
          143 -122 97 173 callsubr
          36 -408.99000549316406 -85 callsubr
        </CharString>
        <CharString name="Otilde">
          40 callgsubr
          46 -19 callsubr
          65.99000549316406 364.00999450683594 569.9900054931641 -26 callsubr
          hintmask 11011100
          485.99000549316406 158 callgsubr
          hintmask 11101100
          208 callgsubr
          196 3 callgsubr
          hintmask 11011100
          186 callsubr
          -420 -1205 -105 callsubr
        </CharString>
        <CharString name="P">
          -53 206 callsubr
          hstem
          963.9900054931641 348.99000549316406 vstem
          290 1530 206 callgsubr
          123 callsubr
          72 -92 callsubr
          70 hhcurveto
          90 callsubr
          -156 hlineto
          373 -778.0200042724609 rmoveto
          -48 -57 5 7 -24 hvcurveto
          76.97999572753906 526 rlineto
          5 29.029998779296875 44.99000549316406 146 callgsubr
          -97 72 callgsubr
          -192 hhcurveto
          endchar
        </CharString>
        <CharString name="Q">
          44 -420 278.99000549316406 1421.009994506836 -27 callsubr
          135 callsubr
          41.49000549316406 243.50999450683594 284.99000549316406 -26 callsubr
          hintmask 00000000
          hintmask 11111000
          715 -8.990005493164062 rmoveto
          407.97999572753906 55.970001220703125 241 415 484 vvcurveto
          326 -181 274 -362 vhcurveto
          hintmask 11101000
          -471.99000549316406 -283.00999450683594 -446.00999450683594 -522 249 callsubr
          143 -244 287.99000549316406 -52.97999572753906 hvcurveto
          hintmask 11111000
          -328.99000549316406 -107.99000549316406 250 -85.00999450683594 233 hhcurveto
          127 199 46 56.02000427246094 58.99000549316406 hvcurveto
          203 vlineto
          -20 -70 -10 callsubr
          -6 -128 hhcurveto
          -150 -94 18 -4 callsubr
          13 hvcurveto
          hintmask 11101000
          68 1288.990005493164 rmoveto
          141 76 -4 callgsubr
          -264.99000549316406 18 callsubr
          -139.99000549316406 -76 81 264.99000549316406 305.00999450683594 -60 callgsubr
          379 223 hvcurveto
          endchar
        </CharString>
        <CharString name="R">
          -7 39 callgsubr
          983.9799957275391 345 vstem
          1002.9900054931641 640.9799957275391 -82 callsubr
        </CharString>
        <CharString name="Racute">
          -7 39 callgsubr
          983.9799957275391 345 vstem
          1192.979995727539 1826.979995727539 rmoveto
          -209.99000549316406 25 callgsubr
          142.99000549316406 145 callsubr
          -190 -1186 -82 callsubr
        </CharString>
        <CharString name="Rcaron">
          5 39 callgsubr
          995.9799957275391 345 vstem
          878 1599 rmoveto
          371 136 callsubr
          -286.97999572753906 -63 callsubr
          45 callsubr
          136.99000549316406 -958.0200042724609 -80 callgsubr
          endchar
        </CharString>
        <CharString name="Rcommaaccent">
          5 39 callgsubr
          542.9799957275391 258 195 345 vstem
          1014.9900054931641 640.9799957275391 -80 callgsubr
          126 callsubr
          -881.9900054931641 23 callgsubr
          234 callsubr
          -23 callgsubr
          vhcurveto
          endchar
        </CharString>
        <CharString name="S">
          -48 callsubr
          115 367.97999572753906 -101 callsubr
        </CharString>
        <CharString name="Sacute">
          -48 callsubr
          569 161 callsubr
          166 callgsubr
          97 -80 callsubr
          -454 -1304 -101 callsubr
        </CharString>
        <CharString name="Scaron">
          -48 callsubr
          169 callgsubr
          -37 callsubr
          179 callgsubr
          -1568.009994506836 -101 callsubr
        </CharString>
        <CharString name="Scedilla">
          -293 166 callsubr
          233 282.99000549316406 999.9900054931641 278.99000549316406 hstemhm
          167.99000549316406 338 -115.010009765625 -66 callsubr
          -22.990005493164062 362 hintmask 11110100
          697 878.9799957275391 rmoveto
          -110 87 -83 69.02000427246094 2 125 callsubr
          rrcurveto
          71 0.9900054931640625 56.02000427246094 66.00999450683594 129 hhcurveto
          -56 callsubr
          112 -41 -46 46 hvcurveto
          112 280.97999572753906 rlineto
          37 -52 -134 48 -175 hhcurveto
          -322 -211.99000549316406 -178 -279 -186 134 -142.99000549316406 122 -92 hvcurveto
          144 -37 callgsubr
          46 -51 -2 -88 rrcurveto
          -84.99000549316406 -92 callsubr
          -51.02000427246094 -68 -151 hhcurveto
          79 callgsubr
          -129 52 48.99000549316406 -63 hvcurveto
          -119.99000549316406 -287.99000549316406 rlineto
          hintmask 11101000
          -37 45.97999572753906 53 callsubr
          2 -29 0 -38.02000427246094 -2 -41 rrcurveto
          -104 -6 143 callsubr
          -21 -103 hhcurveto
          -32 37 callgsubr
          69 -24 116 -23.979995727539062 56.99000549316406 hvcurveto
          hintmask 11110100
          237 52 150 153 249 vvcurveto
          -20 callsubr
          vhcurveto
          endchar
        </CharString>
        <CharString name="Scircumflex">
          -48 callsubr
          236 callsubr
          1665.990005493164 rmoveto
          148 -35 callsubr
          -371.02000427246094 -348 rlineto
          -187.99000549316406 -1298 -101 callsubr
        </CharString>
        <CharString name="Scommaaccent">
          -281 -95 callgsubr
          282.99000549316406 999.9900054931641 278.99000549316406 hstemhm
          179.99000549316406 337.97999572753906 -107.99000549316406 258 -44 362 hintmask 11101000
          127 367.97999572753906 rmoveto
          -120.02000427246094 -287.99000549316406 rlineto
          -37 46 53 callsubr
          51 callgsubr
          -79 callsubr
          125 callsubr
          rrcurveto
          71 1 56.02000427246094 66.00999450683594 129 hhcurveto
          -56 callsubr
          112 -41 -46 46 hvcurveto
          112 280.97999572753906 rlineto
          37 -52 -134 48 -175 hhcurveto
          -322 -211.99000549316406 -178 -279 -186 134 -142.99000549316406 122 -92 hvcurveto
          144 -37 callgsubr
          46 -51 -2 -88 rrcurveto
          -84.99000549316406 -92 callsubr
          -51.02000427246094 -68 -151 hhcurveto
          79 callgsubr
          -129 52 48.99000549316406 -63 hvcurveto
          hintmask 11010000
          215 -601.9799957275391 12 callsubr
        </CharString>
        <CharString name="T">
          -198 280 callgsubr
          hstem
          182 callsubr
          1110.990005493164 vstem
          494.97999572753906 1265.990005493164 rmoveto
          -180.99000549316406 -1265.990005493164 rlineto
          360 157 callsubr
          -44 -275 359 11 rlineto
          endchar
        </CharString>
        <CharString name="Tbar">
          -186 634.9799957275391 251 374.52000427246094 205 callsubr
          1218.990005493164 1254.990005493164 rmoveto
          40 275 rlineto
          -1066.990005493164 hlineto
          -44.02000427246094 -275 359 11 -53.99000549316406 -380 rlineto
          -235 hlineto
          -30 -251 rlineto
          229 hlineto
          234 callsubr
          -634.9799957275391 rlineto
          360.02000427246094 hlineto
          91 634.9799957275391 rlineto
          250 hlineto
          31 251 rlineto
          -245 hlineto
          53.99000549316406 380 352.02000427246094 -11 rlineto
          endchar
        </CharString>
        <CharString name="Tcaron">
          -186 1260.5 205 callsubr
          395 118 callsubr
          142 callgsubr
          -337 rlineto
          180 hlineto
          286 callsubr
          -147.99000549316406 1 callsubr
          -145 -77.99000549316406 rlineto
          111.99000549316406 -670 -39 callgsubr
          endchar
        </CharString>
        <CharString name="Thorn">
          -45 177 callsubr
          265.00999450683594 518.9900054931641 246 hstem
          939.9900054931641 346.99000549316406 vstem
          1286.979995727539 862.9900054931641 rmoveto
          280 -1 -192.99000549316406 145 -344 hhcurveto
          -46 195 callgsubr
          -2 -77 callsubr
          -41.99000549316406 hvcurveto
          35 247 rlineto
          -360.02000427246094 hlineto
          -215 -1530 rlineto
          361 hlineto
          38 269.97999572753906 rlineto
          -2 24 -61 callsubr
          -10 65 hhcurveto
          424 233 275 330 -1 hvcurveto
          -346.99000549316406 54 callsubr
          rmoveto
          -193 -12 -99 -116 -192 hhcurveto
          -46 -54 4 7 142 callsubr
          hvcurveto
          70.97999572753906 506 2 -3 rlineto
          5 29 44.99000549316406 0 26.009994506835938 hhcurveto
          199.99000549316406 63.02000427246094 -80 230 callsubr
          -8 hvcurveto
          endchar
        </CharString>
        <CharString name="U">
          -28 callsubr
          hstem
          115 362 vstem
          128 596.9900054931641 -107 callgsubr
        </CharString>
        <CharString name="Uacute">
          -28 callsubr
          hstem
          115 362 vstem
          748.9900054931641 161 callsubr
          143 -122 237 callsubr
          -80 callsubr
          -620.9900054931641 -1075 -107 callgsubr
        </CharString>
        <CharString name="Ubreve">
          -28 callsubr
          1377.990005493164 217 hstem
          115 362 69.97000122070312 196 307.00999450683594 228 callgsubr
          546.9700012207031 1928.990005493164 210 callgsubr
          240 255 108.99000549316406 188 -5 callsubr
          11 0 12 -1 11 vhcurveto
          -184 hlineto
          -80 -58 callsubr
          16 -79 callsubr
          15.009994506835938 2 226 callgsubr
          -188 hlineto
          229 callgsubr
          -418.97999572753906 -1332 -107 callgsubr
        </CharString>
        <CharString name="Ucircumflex">
          -28 callsubr
          hstem
          115 362 vstem
          482.97999572753906 100 callsubr
          287.00999450683594 -7 callsubr
          -371.02000427246094 -348 rlineto
          -354.97999572753906 -1069 -107 callgsubr
        </CharString>
        <CharString name="Udieresis">
          -28 callsubr
          1376.979995727539 363 hstemhm
          115 362 -17.020004272460938 139 callsubr
          339 hintmask 00000000
          hintmask 11011000
          459.97999572753906 260 callgsubr
          81 callsubr
          -68 callgsubr
          258 callsubr
          -60 callgsubr
          57.02000427246094 91 111 1.9900054931640625 46 callsubr
          247 callgsubr
          hhcurveto
          229 callsubr
          23 callsubr
          -65.99000549316406 244 callsubr
          hintmask 11101000
          -805.9900054931641 -1201.990005493164 -107 callgsubr
        </CharString>
        <CharString name="Ugrave">
          -28 callsubr
          hstem
          115 362 vstem
          486.99000549316406 42 callsubr
          -43 callgsubr
          -140 97 -36 143 44 callgsubr
          -358.99000549316406 -1229.990005493164 -107 callgsubr
        </CharString>
        <CharString name="Uhungarumlaut">
          -28 callsubr
          hstem
          115 362 vstem
          459.97999572753906 1644.990005493164 rmoveto
          123 -86 211 callsubr
          -62 callsubr
          176.99000549316406 159 52 116 rlinecurve
          -182.99000549316406 -25 callgsubr
          -284.02000427246094 -368.99000549316406 rlineto
          494.02000427246094 hmoveto
          117.99000549316406 -86 115 callgsubr
          -24 callsubr
          230 callgsubr
          157 69.02000427246094 116 rlinecurve
          -180 144 -285 -368.99000549316406 rlineto
          -826 -1048 -107 callgsubr
        </CharString>
        <CharString name="Umacron">
          -28 callsubr
          1451.979995727539 257 callgsubr
          115 362 vstem
          594.9799957275391 162 callgsubr
          93 callgsubr
          -577 hlineto
          -466.97999572753906 -1319 -107 callgsubr
        </CharString>
        <CharString name="Uogonek">
          101 112 callgsubr
          261 270.99000549316406 hstemhm
          127 361.97999572753906 1 281 hintmask 11100000
          1099 1530 rmoveto
          124 callsubr
          -896 rlineto
          -295.02000427246094 -44 -78 -93 callsubr
          -163 hhcurveto
          -144 -53 45 150 -1 hvcurveto
          57 1 62.02000427246094 10.020004272460938 -59 callgsubr
          vhcurveto
          126 888.0099945068359 rlineto
          -353 hlineto
          -133.02000427246094 -933 -8.990005493164062 -59 -5 -54 1 -52 rlinecurve
          -275.97999572753906 1 156 -171.99000549316406 349 hhcurveto
          -62 callsubr
          36 1 2.9900054931640625 34 hvcurveto
          hintmask 11010000
          -99 -51 -151 -121 -132.02000427246094 vvcurveto
          -105 63 callgsubr
          174 callgsubr
          103 40 83 81 vhcurveto
          -41 149 callsubr
          -55 hhcurveto
          -39 -28 105 callgsubr
          57 64 153 137 121 71.97999572753906 hvcurveto
          -9.009994506835938 1 159 90.99000549316406 88 168 -24 callsubr
          269 rlinecurve
          130 933 rlineto
          hintmask 11100000
          -351.99000549316406 hlineto
          endchar
        </CharString>
        <CharString name="Uring">
          -28 callsubr
          1315.9700012207031 139.00999450683594 268.010009765625 182 callsubr
          hstemhm
          115 362 54.97999572753906 -43 callgsubr
          305.02000427246094 245 callsubr
          hintmask 11101100
          531.9900054931641 1810.979995727539 rmoveto
          -158 132 -82 191.02000427246094 182.99000549316406 190 122 callgsubr
          213 159 -128.99000549316406 74 -177 -156 -234 -68 -235 vhcurveto
          501 42 rmoveto
          -115 -89.00999450683594 -28 -77 152 callsubr
          -71 52.97999572753906 71 108.02000427246094 92.02000427246094 36 76.99000549316406 70 66.00999450683594 231 callgsubr
          -73 vhcurveto
          hintmask 11111100
          -904.9900054931641 -1256 -107 callgsubr
        </CharString>
        <CharString name="Utilde">
          -28 callsubr
          1336.990005493164 -19 callsubr
          115 362 hintmask 00000000
          hintmask 10110000
          465.97999572753906 188 callsubr
          54 46 232 callgsubr
          -1 rlinecurve
          hintmask 11010000
          208 callgsubr
          181 callgsubr
          hhcurveto
          116.97999572753906 144.02000427246094 113.99000549316406 95.00999450683594 185 callsubr
          195 callgsubr
          -58 71 callsubr
          hhcurveto
          hintmask 10110000
          131 callgsubr
          hintmask 11010000
          -337.97999572753906 -1186 -107 callgsubr
        </CharString>
        <CharString name="V">
          -118 191 callgsubr
          250 callgsubr
          1296.990005493164 vstem
          250 callgsubr
          1530 rmoveto
          225 -1530 rlineto
          412 hlineto
          660.0099945068359 -40 callsubr
          -375.00999450683594 hlineto
          -355.99000549316406 -980 -77 -262 -17 262 -118 980 rlineto
          -354 hlineto
          endchar
        </CharString>
        <CharString name="W">
          452 191 callgsubr
          96.99000549316406 1904 vstem
          1636.990005493164 1530 -33 callsubr
        </CharString>
        <CharString name="Wacute">
          464 34 callsubr
          108.99000549316406 1904 vstem
          1419.979995727539 1826.979995727539 rmoveto
          -209.99000549316406 187 -279.02000427246094 -342 151 callgsubr
          145 callsubr
          229 -296.97999572753906 -75 callsubr
        </CharString>
        <CharString name="Wcircumflex">
          452 34 callsubr
          96.99000549316406 1904 vstem
          1088 1765.990005493164 rmoveto
          -63 callgsubr
          -371.02000427246094 -348 112 callsubr
          287.00999450683594 167 rlineto
          548.9900054931641 -236 -33 callsubr
        </CharString>
        <CharString name="Wdieresis">
          464 199 callsubr
          641.9799957275391 139 callsubr
          169 callgsubr
          vstem
          791.9799957275391 160 callsubr
          130 57 28 callsubr
          2 -61 60 callsubr
          -113 -69 244 callsubr
          -82.99000549316406 81 callsubr
          -68 callgsubr
          80 hhcurveto
          472 hmoveto
          184 callsubr
          -27 callgsubr
          hhcurveto
          -113.00999450683594 -66 117 callgsubr
          77 callsubr
          81 hhcurveto
          385 96 callsubr
          -75 callsubr
        </CharString>
        <CharString name="Wgrave">
          464 34 callsubr
          108.99000549316406 1904 vstem
          1014.9900054931641 1549.990005493164 rmoveto
          143 122 -279 342 -209.99000549316406 -187 52.99000549316406 79 callgsubr
          181 callgsubr
          -140 96.99000549316406 -36 rlinecurve
          634 -15 callgsubr
          -75 callsubr
        </CharString>
        <CharString name="X">
          -107 -1 1531 hstem
          -99 1501.979995727539 vstem
          463.99000549316406 808 rmoveto
          -562.9900054931641 -808 rlineto
          395.97999572753906 hlineto
          322 529.9799957275391 201 -530.9799957275391 385.99000549316406 1 -347 734.9900054931641 543.9900054931641 795.0099945068359 rlineto
          -385.99000549316406 hlineto
          -317.00999450683594 -493.02000427246094 -47 callgsubr
          493.02000427246094 rlineto
          -380 hlineto
          321 -722 rlineto
          endchar
        </CharString>
        <CharString name="Y">
          -187 191 callgsubr
          82.97999572753906 1272.990005493164 vstem
          401.97999572753906 589.9900054931641 -94 callsubr
        </CharString>
        <CharString name="Yacute">
          86 callsubr
          593 161 callsubr
          166 callgsubr
          97 36 181 callgsubr
          140 53 13 callgsubr
          -210 25 callgsubr
          rlineto
          -191.02000427246094 -1082 -94 callsubr
        </CharString>
        <CharString name="Ycircumflex">
          86 callsubr
          326.97999572753906 1665.990005493164 rmoveto
          148 -35 callsubr
          -371.02000427246094 -348 rlineto
          75 -1076 -94 callsubr
        </CharString>
        <CharString name="Ydieresis">
          -187 199 callsubr
          303.97999572753906 139 callsubr
          339 vstem
          303.97999572753906 260 callgsubr
          81 callsubr
          -68 callgsubr
          80 hhcurveto
          130 57 91 111 2 46 callsubr
          81 hhcurveto
          129 23 callsubr
          -66 117 callgsubr
          -376.00999450683594 -1209 -94 callsubr
        </CharString>
        <CharString name="Ygrave">
          86 callsubr
          331 42 callsubr
          -43 callgsubr
          -140 97 -36 143 44 callgsubr
          70.99000549316406 -1236.990005493164 -94 callsubr
        </CharString>
        <CharString name="Z">
          30 callgsubr
          152 callsubr
          88.99000549316406 -79 callgsubr
        </CharString>
        <CharString name="Zacute">
          30 callgsubr
          652.9799957275391 161 callsubr
          151 callgsubr
          -122 96.99000549316406 -80 callsubr
          -720.9700012207031 -1583 -79 callgsubr
        </CharString>
        <CharString name="Zcaron">
          30 callgsubr
          422.99000549316406 118 callsubr
          142 callgsubr
          -337 rlineto
          180 hlineto
          371.02000427246094 136 callsubr
          -287 -47 callgsubr
          -182.99000549316406 -13 callgsubr
          rlineto
          -490.97999572753906 -1847 -79 callgsubr
        </CharString>
        <CharString name="Zdotaccent">
          76 callsubr
          201 callgsubr
          580.9900054931641 273 callgsubr
          256 callgsubr
          581 1779 rmoveto
          284 callgsubr
          -25 callgsubr
          72 31 callsubr
          -52 callsubr
          74 -116.99000549316406 hhcurveto
          -124 -84.00999450683594 171 callsubr
          -648.9900054931641 -1690.009994506836 -79 callgsubr
        </CharString>
        <CharString name="a">
          -59 callsubr
          44 callsubr
          1020.9900054931641 1111 rmoveto
          21 -52 callgsubr
          -73 callsubr
          -100 callsubr
          253 callgsubr
          -490 -887.0099945068359 -99 callsubr
        </CharString>
        <CharString name="aacute">
          -59 callsubr
          44 callsubr
          1209 28 callgsubr
          70 callgsubr
          -449 124.00999450683594 -51 callsubr
          -436 -418 rmoveto
          -100 callsubr
          253 callgsubr
          21 -52 callgsubr
          207 callsubr
          -932 -99 callsubr
        </CharString>
        <CharString name="abreve">
          -59 callsubr
          269 callsubr
          217 32 callgsubr
          53.97999572753906 196 307.010009765625 265 callgsubr
          hintmask 11111100
          820 256 callsubr
          255 108.99000549316406 156 callsubr
          hvcurveto
          -184 -35 callgsubr
          -79 callsubr
          15 2 14 hvcurveto
          -188 hlineto
          -5 -18 -7 190 callsubr
          137 callgsubr
          240 vhcurveto
          200.99000549316406 -6 callsubr
          rmoveto
          21 -52 callgsubr
          -73 callsubr
          hintmask 11110100
          -100 callsubr
          rlineto
          hintmask 11111100
          253 callgsubr
          hintmask 11110100
          -490 -887.0099945068359 -99 callsubr
        </CharString>
        <CharString name="acircumflex">
          -59 callsubr
          44 callsubr
          851.9900054931641 1402 rmoveto
          138 callsubr
          217 callsubr
          94 callgsubr
          -371 -373.99000549316406 138 -28 callgsubr
          rlineto
          169 -291 rmoveto
          21 -52 callgsubr
          -73 callsubr
          -100 callsubr
          253 callgsubr
          -490 -887.0099945068359 -99 callsubr
        </CharString>
        <CharString name="acute">
          -786 236 callgsubr
          548 hstem
          276 callgsubr
          543 vstem
          276 callgsubr
          1324.990005493164 rmoveto
          124.00999450683594 -51 callsubr
          -209 200 70 callgsubr
          -449 rlineto
          endchar
        </CharString>
        <CharString name="acute.cap">
          -819 260 callsubr
          153 callsubr
          489 vstem
          153 callsubr
          161 callsubr
          166 callgsubr
          122 callgsubr
          -80 callsubr
          endchar
        </CharString>
        <CharString name="adieresis">
          -59 callsubr
          182 214 callsubr
          32 callgsubr
          -26.020004272460938 139 callsubr
          169 callgsubr
          hintmask 00000000
          hintmask 11101100
          565.9900054931641 1338 rmoveto
          130 57 162 callsubr
          -17 callgsubr
          286 callgsubr
          240 callsubr
          505 362.99000549316406 rmoveto
          -10 callsubr
          -66 264 callsubr
          200 callgsubr
          129 60 33 callgsubr
          80 2 -64 113 callsubr
          -297.97999572753906 -545 rmoveto
          hintmask 11110100
          -100 callsubr
          253 callgsubr
          hintmask 11101100
          21 -52 callgsubr
          -73 callsubr
          hintmask 11110100
          211 callgsubr
          -932 -99 callsubr
        </CharString>
        <CharString name="ae">
          14 callgsubr
          1251.979995727539 226 -91 callsubr
        </CharString>
        <CharString name="aeacute">
          14 callgsubr
          1421.990005493164 -7 callgsubr
          -170 -1348 -91 callsubr
        </CharString>
        <CharString name="agrave">
          -59 callsubr
          44 callsubr
          773.9799957275391 236 callgsubr
          rmoveto
          124 99 179 callsubr
          449 -209.02000427246094 -200 36 82 callsubr
          rlinecurve
          247 -115 rmoveto
          21 -52 callgsubr
          -73 callsubr
          -100 callsubr
          253 callgsubr
          -490 -887.0099945068359 -99 callsubr
        </CharString>
        <CharString name="amacron">
          -59 callsubr
          239 49 callsubr
          44 callsubr
          1120.990005493164 177 callgsubr
          -597.0099945068359 hlineto
          -17.990005493164062 -218.99000549316406 rlineto
          597 hlineto
          18 49 callsubr
          rlineto
          -100 -502.99000549316406 rmoveto
          21 -52 callgsubr
          -73 callsubr
          -100 callsubr
          253 callgsubr
          -490 -887.0099945068359 -99 callsubr
        </CharString>
        <CharString name="ampersand">
          214 -95 callgsubr
          203.97999572753906 -203.97999572753906 233.97999572753906 273 callsubr
          236 496.010009765625 219.99000549316406 hstemhm
          4.9900054931640625 346.99000549316406 -89.00001525878906 329.00999450683594 244.00001525878906 324.99000549316406 -165.00001525878906 95 4 326 hintmask 0111101000000000
          1596.990005493164 828.9900054931641 rmoveto
          hintmask 0111100100000000
          -447 1 rlineto
          -90.00999450683594 -40 -22 -23 -19 hvcurveto
          -10 -224 23 268 callgsubr
          34 11 43 5 rlinecurve
          hintmask 0111100010000000
          2 -21.009994506835938 -79 callsubr
          -24 -44 callsubr
          vvcurveto
          -60 -17 141 callsubr
          54 callsubr
          -42 vhcurveto
          -117 109 -99 134 248 callgsubr
          124 rrcurveto
          hintmask 0111011000000000
          203 118.00999450683594 205 144 240 vvcurveto
          182 callsubr
          -79 172 -325.02000427246094 -320.97999572753906 -173.02000427246094 -197 -241 -95 34 -123.99000549316406 97 callgsubr
          -104 vhcurveto
          hintmask 0111101000000000
          -179.02000427246094 -100 -157.97999572753906 -121 -203.02000427246094 vvcurveto
          -261 232 -115.97000122070312 379 122.97999572753906 106 callsubr
          16.970001220703125 234 callgsubr
          107.00999450683594 vhcurveto
          hintmask 1011100010000000
          -36 -50 callgsubr
          98 -13.990005493164062 66 hhcurveto
          71 141 70 callsubr
          15.990005493164062 41.99000549316406 hvcurveto
          40 180 65 callgsubr
          -1 -29 0 -27 2 rlinecurve
          -59 4 195 callgsubr
          9.009994506835938 -40 13 rrcurveto
          92.02000427246094 125 callsubr
          53.99000549316406 123 153 vvcurveto
          70 callsubr
          156 vlineto
          hintmask 0111101000000000
          20 235 rlineto
          hintmask 0111011000000000
          -1005 317.00999450683594 rmoveto
          104 51 76 73.99000549316406 85.02000427246094 34 -46 -82 -107 -68 callgsubr
          -77 -113.99000549316406 -69 vhcurveto
          -24 58 -22 74 69.02000427246094 vvcurveto
          hintmask 0111101000000000
          -240 -755.0200042724609 rmoveto
          65 45 55 69 52 vhcurveto
          77 -125.00999450683594 63 -93 123 -123 rrcurveto
          -77 callsubr
          -29 -30 -1 -29.979995727539062 hhcurveto
          -166.02000427246094 -122 39 134 hvcurveto
          endchar
        </CharString>
        <CharString name="aogonek">
          -83 112 callgsubr
          261 -29 callgsubr
          hstem
          -76 callgsubr
          74.99000549316406 280.97999572753906 vstem
          864.9900054931641 -276.99000549316406 rmoveto
          -39 194 callgsubr
          69 callgsubr
          59 callsubr
          253 callgsubr
          21 -52 callgsubr
          -73 callsubr
          -102 callgsubr
          165.99000549316406 108.00999450683594 141.97999572753906 122 -38 callsubr
          hvcurveto
          -12 -247.99000549316406 rlineto
          69 hlineto
          -27 callgsubr
          -41 -180 71 callgsubr
          -144.02000427246094 vvcurveto
          -105 -50 callgsubr
          174 callgsubr
          103 40 83 81 vhcurveto
          -40.97999572753906 149 callsubr
          153 callgsubr
          hhcurveto
          70 callgsubr
          500.97999572753906 -99 callsubr
        </CharString>
        <CharString name="approxequal">
          -288 236.99000549316406 262 -80.010009765625 252 62.010009765625 261.97999572753906 -79.99000549316406 252 hstemhm
          -6 1129.979995727539 hintmask 01011000
          64 947 rmoveto
          151 callsubr
          -141 rlineto
          49.99000549316406 39 60 59 73.02000427246094 hhcurveto
          hintmask 01101000
          199 callgsubr
          116.99000549316406 270 callsubr
          28 hvcurveto
          -134 139 rlineto
          -70 141 callsubr
          -59 -37 143 callsubr
          hhcurveto
          hintmask 01011000
          -129 -80 172.02000427246094 -193 hhcurveto
          -146 -165 72 callgsubr
          79 callgsubr
          54 callsubr
          hvcurveto
          -70 -496 rmoveto
          151 callsubr
          -141 rlineto
          50 39 60 58.97999572753906 257 callsubr
          hintmask 10011000
          199 callgsubr
          117 237 callgsubr
          28 hvcurveto
          -134 139 rlineto
          -70 141 callsubr
          -59 -36.99000549316406 143 callsubr
          hhcurveto
          hintmask 01011000
          -129 -80 168 callsubr
          -193 hhcurveto
          -146 -165 -34 callsubr
          -101 54 callsubr
          hvcurveto
          endchar
        </CharString>
        <CharString name="aring">
          -59 callsubr
          96.989990234375 172 callsubr
          32 callgsubr
          57.99000549316406 -43 callgsubr
          304.99998474121094 195 hintmask 11110110
          812.9900054931641 1252.990005493164 rmoveto
          83 callsubr
          267 callgsubr
          hvcurveto
          52 411.02000427246094 rmoveto
          70 65.99000549316406 231 callgsubr
          143 callsubr
          -115 -56 callgsubr
          99 callsubr
          hvcurveto
          156 -553 rmoveto
          21 -52 callgsubr
          -73 callsubr
          hintmask 11111110
          -100 callsubr
          rlineto
          hintmask 11110110
          253 callgsubr
          hintmask 11111110
          -490 -887.0099945068359 -99 callsubr
        </CharString>
        <CharString name="asciicircum">
          13 509.99000549316406 1020.9799957275391 hstem
          269 callgsubr
          1065 vstem
          657 1530.979995727539 rmoveto
          -531 -1020.9900054931641 rlineto
          275 hlineto
          357.99000549316406 650 161 -650 rlineto
          271.00999450683594 hlineto
          -267 1020.9900054931641 rlineto
          -267 hlineto
          endchar
        </CharString>
        <CharString name="asciitilde">
          -214 671.9799957275391 262 -79.989990234375 251.99000549316406 hstemhm
          181 callsubr
          1060 hintmask 01100000
          181 callsubr
          885.9900054931641 rmoveto
          148 -141 rlineto
          50 39 60 59 -59 callgsubr
          hhcurveto
          hintmask 10100000
          153 52 -182 203 hhcurveto
          146 158 117 237 callgsubr
          28 hvcurveto
          -134 139.02000427246094 rlineto
          -70 141 callsubr
          -59 -37 143 callsubr
          hhcurveto
          hintmask 01100000
          -129 -4 callgsubr
          168 callsubr
          -192.97999572753906 hhcurveto
          -146 -165 -34 callsubr
          -101 -31 hvcurveto
          endchar
        </CharString>
        <CharString name="asterisk">
          15 578.9900054931641 1142 hstem
          230 callgsubr
          1156.009994506836 vstem
          230 callgsubr
          968.9900054931641 rmoveto
          107 -210 397 289 194 callgsubr
          -138 -76.99000549316406 -330 244 -1 -12 331 -6 138 103 -93 callsubr
          239 -203 150 208 -298.99000549316406 269 callgsubr
          -118 53 129 55 327 128 -97.00999450683594 210 -292 -205 -121 -81 234 callgsubr
          135 76.97999572753906 331 rlineto
          -238 hlineto
          8 -331 -1 -135 -98 81 -258 203 230 callsubr
          -208 298.97999572753906 -128 118 -53 -129 -55 -327 212 callsubr
          rlineto
          endchar
        </CharString>
        <CharString name="at">
          677 -439.99000549316406 49 callsubr
          227.97999572753906 289.00999450683594 -284.99998474121094 142 callgsubr
          660.0099945068359 228.99000549316406 236.00999450683594 196.99000549316406 hstemhm
          0 callgsubr
          -66 callsubr
          197.99998474121094 295.99000549316406 368.02000427246094 214.99000549316406 288.99998474121094 254.99000549316406 hintmask 1011111110000000
          236 callgsubr
          1544.990005493164 rmoveto
          -625 -499 -447 -724 -516.9700012207031 351.99000549316406 -297 485 171 163 46 70 92 hvcurveto
          -59 121 callgsubr
          rlineto
          -30 -61.99000549316406 -97.02000427246094 -37.99000549316406 -186 hhcurveto
          -320.97999572753906 -294.02000427246094 165 473.99000549316406 460.99000549316406 316.00999450683594 469.00999450683594 513 289 80 callgsubr
          107 callsubr
          -385.99000549316406 -305.00999450683594 -127 -332 -148.99000549316406 -9.020004272460938 -3.9900054931640625 9.009994506835938 17 -24 callsubr
          6 10 11 103.00999450683594 hvcurveto
          123 callsubr
          201 -40 callgsubr
          334 233 callgsubr
          153 -195 -30 rcurveline
          39 -56 -109 105 callgsubr
          -55 hhcurveto
          -369.99000549316406 -194 -347 -321 -6 hvcurveto
          hintmask 1101111110000000
          -297 -6 179 -140 135 hhcurveto
          148 -60 callgsubr
          151 213.02000427246094 -71 callgsubr
          hvcurveto
          hintmask 1011111110000000
          -6 -59 -6 -100 -47 vvcurveto
          -89 40 -64.99000549316406 80 289.02000427246094 349.99000549316406 326.97999572753906 571 388.02000427246094 -286.99000549316406 248 -454 vhcurveto
          hintmask 1101111110000000
          -300.00999450683594 -1249 rmoveto
          -70.99000549316406 -15.009994506835938 80 107.99000549316406 159 76 240 157 38 58 -11 -32 29 hvcurveto
          -165 -21.009994506835938 -157 -378.97999572753906 -94 hhcurveto
          endchar
        </CharString>
        <CharString name="atilde">
          -59 callsubr
          269 callsubr
          -19 callgsubr
          69.97999572753906 372.02000427246094 hintmask 11101000
          645.9799957275391 1454 rmoveto
          -3 133.02000427246094 -15.009994506835938 -151 181 callgsubr
          hhcurveto
          116.97999572753906 134 114 95 233 callgsubr
          hvcurveto
          72 callgsubr
          145 rlineto
          -52 -42 -35 -58 71 callsubr
          hhcurveto
          hintmask 11011000
          -110 -7 154 -172.02000427246094 224 callsubr
          -45 hvcurveto
          106 -136 rlineto
          hintmask 11101000
          42 63 callsubr
          63 callsubr
          46 68 -5 callgsubr
          rrcurveto
          127.02000427246094 -298 rmoveto
          -100 callsubr
          253 callgsubr
          21 -52 callgsubr
          207 callsubr
          -932 -99 callsubr
        </CharString>
        <CharString name="b">
          -61 -3 callsubr
          hstem
          845.9799957275391 374 vstem
          884 1155.990005493164 2 callgsubr
          186 34 -5 callgsubr
          -2 rlineto
          -22 59 108.99000549316406 -25.979995727539062 88 -76 callsubr
        </CharString>
        <CharString name="backslash">
          -497 -362 1958.990005493164 hstem
          5.9799957275390625 845 vstem
          850.9799957275391 -362 rmoveto
          -269 hlineto
          -576 1958.990005493164 rlineto
          268 hlineto
          577 -1958.990005493164 rlineto
          endchar
        </CharString>
        <CharString name="bar">
          133 callgsubr
          -1965.990005493164 213 callsubr
          1965.990005493164 196 callsubr
          vlineto
          endchar
        </CharString>
        <CharString name="braceleft">
          -327 -271.99000549316406 88 callgsubr
          1608.979995727539 233 hstem
          50.99000549316406 991.9799957275391 vstem
          267.97999572753906 546 rmoveto
          0 -86 -608.9900054931641 -1 -29 vhcurveto
          -110 -5 callgsubr
          50 -70 146 hhcurveto
          138 135 41 36 92 hvcurveto
          0 19 150 2.9900054931640625 105 callgsubr
          vhcurveto
          -274.97999572753906 hlineto
          92 591.9900054931641 8.990005493164062 60.99000549316406 -15 callgsubr
          17.020004272460938 -30 -40 callgsubr
          rlinecurve
          -29 30 107 callsubr
          39 -58.99000549316406 31.009994506835938 rrcurveto
          0 175.99000549316406 58 29 17 vhcurveto
          53 33 123 callgsubr
          123 callgsubr
          70 callsubr
          54 94 618.9900054931641 rcurveline
          276.00999450683594 hlineto
          -40 callgsubr
          176 rlineto
          0 -220 57 -110 -178 89 callgsubr
          -64 -198 105 callsubr
          vhcurveto
          -88 -537.9900054931641 -4 -23 -26 -31 -35 -19 rlinecurve
          -52 -27 -75 -12 -65 -16 65 callgsubr
          -203.02000427246094 rcurveline
          59 -13.990005493164062 63 -15.009994506835938 122 callsubr
          -29 rrcurveto
          32 -21 79 callsubr
          -34 -22 vvcurveto
          endchar
        </CharString>
        <CharString name="braceright">
          -327 -265.99000549316406 233 1608.9800109863281 88 callgsubr
          hstem
          29.979995727539062 992.0099945068359 vstem
          804.9900054931641 1000 rmoveto
          0 86 609 1 29 vhcurveto
          110 1 141 callsubr
          70 -146 hhcurveto
          -138.02000427246094 -134.99000549316406 -41 -36 -92.02000427246094 hvcurveto
          0 -18.990005493164062 -150 -3 55 callsubr
          vhcurveto
          275 hlineto
          -92 -592.0200042724609 -9.009994506835938 -52 callgsubr
          20.009994506835938 -17 30 -31 rlinecurve
          29 -30 0 callgsubr
          -38.99000549316406 59 -31.009994506835938 rrcurveto
          0 -176 -58 -29 -17 vhcurveto
          -53 -33 -27 121 callsubr
          -8 -54 -93.99000549316406 -618.9799957275391 rcurveline
          193 callgsubr
          hlineto
          -31 -176 rlineto
          0 220.02000427246094 -57 110 177.99000549316406 74 64 198 234 callgsubr
          vhcurveto
          88 537.9900054931641 4 23 25.990005493164062 -40 callgsubr
          35 19 rlinecurve
          52 123 callgsubr
          75.02000427246094 196 callgsubr
          64.99000549316406 50 callgsubr
          32 203 rcurveline
          -59 13.990005493164062 -63 15.009994506835938 -43 29 rrcurveto
          65 callgsubr
          153 callsubr
          -23 callsubr
          34 22.020004272460938 vvcurveto
          endchar
        </CharString>
        <CharString name="bracketleft">
          -497 -258.99000549316406 228.99000549316406 1609.990005493164 222 hstem
          -60 callgsubr
          801.9900054931641 vstem
          345.99000549316406 1512.979995727539 rmoveto
          -208 -1479.990005493164 rlineto
          -6 -39.99000549316406 -2 -36 -34 vvcurveto
          -110 71 -71.99000549316406 269 callgsubr
          159 93 29.990005493164062 26.009994506835938 90.99000549316406 vhcurveto
          22.020004272460938 173 rlineto
          -255.02000427246094 hlineto
          214.02000427246094 1609.990005493164 rlineto
          255 hlineto
          25.990005493164062 175 rlineto
          0 -192 47 -138 -158 -71 -97.00999450683594 -192 -27 vhcurveto
          endchar
        </CharString>
        <CharString name="bracketright">
          -497 -246 222 1609.990005493164 229 hstem
          -95 callgsubr
          801.9700012207031 vstem
          570 122 callsubr
          rmoveto
          208 1480.009994506836 rlineto
          6 40 -79 callsubr
          36 34 vvcurveto
          110 -70.99000549316406 72 -126.02000427246094 -158.99000549316406 -93 -30 -15 callsubr
          234 callsubr
          vhcurveto
          -22 -173 rlineto
          255 hlineto
          -214 -1609.990005493164 rlineto
          -255 hlineto
          -25.979995727539062 -175 rlineto
          0 191.97000122070312 -47 210 callsubr
          157.99000549316406 71 122 callgsubr
          191.97999572753906 123 callgsubr
          vhcurveto
          endchar
        </CharString>
        <CharString name="breve">
          -627 1299.979995727539 217 hstem
          -62 callsubr
          120 callsubr
          -62 callsubr
          1595.990005493164 77 callgsubr
          255.02000427246094 109 156 callsubr
          vhcurveto
          -183.99000549316406 29 callgsubr
          endchar
        </CharString>
        <CharString name="breve.cap">
          -629 1632.990005493164 217 hstem
          -62 callsubr
          120 callsubr
          -62 callsubr
          -30 callgsubr
          endchar
        </CharString>
        <CharString name="brokenbar">
          133 callgsubr
          -864.0099945068359 213 callsubr
          864.0099945068359 196 callsubr
          vlineto
          -1102 vmoveto
          -863.9900054931641 213 callsubr
          863.9900054931641 196 callsubr
          vlineto
          endchar
        </CharString>
        <CharString name="bullet">
          -493 506.97999572753906 432 hstem
          232.97999572753906 427 vstem
          232.97999572753906 682.9900054931641 rmoveto
          -97 76 56 callgsubr
          100 153 98 140 120.02000427246094 99 -75 -59 callgsubr
          -33 callgsubr
          215 callsubr
          -37 callgsubr
          -136 -119.99000549316406 vhcurveto
          endchar
        </CharString>
        <CharString name="c">
          -36 callsubr
          694.9900054931641 1155.990005493164 -99 callgsubr
        </CharString>
        <CharString name="cacute">
          -36 callsubr
          600.9900054931641 1324.990005493164 rmoveto
          124 -51 callsubr
          -209 200 -334 -449 rlineto
          94 -169 -99 callgsubr
        </CharString>
        <CharString name="caron">
          -549 1257.979995727539 441.99000549316406 hstem
          64.97999572753906 763 vstem
          64.97999572753906 160 callsubr
          130 callgsubr
          372 374 -13 callsubr
          193 callgsubr
          -6 callsubr
          -212.99000549316406 106 callgsubr
          -126.02000427246094 -68 rlineto
          endchar
        </CharString>
        <CharString name="caron.cap">
          -551 263 callsubr
          54.99000549316406 763 vstem
          54.99000549316406 41 callgsubr
          -148 66.99000549316406 -286.97999572753906 24 callsubr
          endchar
        </CharString>
        <CharString name="caronvertical">
          -1033 1036.979995727539 644.9900054931641 hstem
          234.99000549316406 263 vstem
          193.99000549316406 1089.990005493164 rmoveto
          6 -25 151 -28 rlineto
          96.00999450683594 167 callgsubr
          150 callgsubr
          27 vhcurveto
          -229 -47.99000549316406 -19.009994506835938 -42 rlineto
          20.009994506835938 -30 4 187 callsubr
          endchar
        </CharString>
        <CharString name="ccaron">
          -36 callsubr
          416.99000549316406 160 callsubr
          142 callgsubr
          -374 rlineto
          179.02000427246094 8 callgsubr
          278 -476 -99 callgsubr
        </CharString>
        <CharString name="ccedilla">
          -395 166 callsubr
          1126.9800109863281 277.99000549316406 hstemhm
          73.99000549316406 -26 callsubr
          -7.0000152587890625 -66 callsubr
          hintmask 11100000
          583.9900054931641 235 callsubr
          rmoveto
          -10 callsubr
          -33 83 174 261 108.99000549316406 106 callsubr
          121.02000427246094 -57 callsubr
          102.00999450683594 -88 -19 160 callgsubr
          86.02000427246094 342 rlineto
          26.009994506835938 -60 -127 17 -71 hhcurveto
          -359 -262 -294.00999450683594 -419.99000549316406 -203.02000427246094 92 179 callgsubr
          264 -27.990005493164062 hvcurveto
          hintmask 11010000
          2.9900054931640625 -30 0 -39 -2 -42 rrcurveto
          -104 -6 -73 -21 -102.99000549316406 hhcurveto
          -32 -30 27 callgsubr
          23.020004272460938 163.99000549316406 -19 251 callgsubr
          101 132 -61 callsubr
          -23 112 -23 59 hvcurveto
          145 233 callsubr
          91.00999450683594 63 callgsubr
          122 callsubr
          66.00999450683594 -56 callgsubr
          121 callgsubr
          rcurveline
          hintmask 11100000
          -47.99000549316406 -43 -107.99000549316406 -52 callsubr
          -68 callgsubr
          hhcurveto
          endchar
        </CharString>
        <CharString name="ccircumflex">
          -36 callsubr
          358.99000549316406 -48 callgsubr
          336 -140 -99 callgsubr
        </CharString>
        <CharString name="cdotaccent">
          -395 -95 callgsubr
          256.97999572753906 637.0000152587891 277.99000549316406 157.00999450683594 368 hstem
          73.99000549316406 -26 callsubr
          138.01998901367188 87 callsubr
          vstem
          576 5 callsubr
          118.99000549316406 -324 -99 callgsubr
        </CharString>
        <CharString name="cedilla">
          -867 166 callsubr
          hstem
          233.97999572753906 -66 callsubr
          vstem
          326.97999572753906 34 rmoveto
          -100 178 callgsubr
          7 -44 callsubr
          4.0200042724609375 -59.97999572753906 178 callgsubr
          -68.02000427246094 rlinecurve
          -104 -6 143 callsubr
          -21 -103 hhcurveto
          -32 -29.979995727539062 27 callgsubr
          23 163.97999572753906 -19 251 callgsubr
          101 132 82 -34 150 -28 35.97999572753906 hvcurveto
          -89 4.0200042724609375 rlineto
          endchar
        </CharString>
        <CharString name="cent">
          -274 -275 1702.990005493164 -550 549.9900054931641 hstemhm
          90.99000549316406 -26 callsubr
          hintmask 10100000
          600.9900054931641 235 callsubr
          rmoveto
          -10 callsubr
          -33.02000427246094 83 174 hvcurveto
          hintmask 01100000
          261 109.02000427246094 106 callsubr
          121 -57 callsubr
          102.00999450683594 -88 -19 19 vhcurveto
          86 342 -39.02000427246094 17 -65.99000549316406 13 -62.02000427246094 7 rlinecurve
          64 278 rlineto
          -239.97999572753906 hlineto
          -66.00999450683594 -290 rlineto
          -279 -71 -191 -267 275 callgsubr
          vvcurveto
          144 callgsubr
          68 -190 187 -68 vhcurveto
          -52 -285 rlineto
          240 hlineto
          47.99000549316406 264.00999450683594 183 21.990005493164062 111 99 49 75 rlinecurve
          -89 121 callgsubr
          rlineto
          hintmask 10100000
          -47.99000549316406 -43 -108 -52 callsubr
          -84 hhcurveto
          endchar
        </CharString>
        <CharString name="circumflex">
          -548 1227.979995727539 441.99000549316406 hstem
          233 callsubr
          763 vstem
          233 callsubr
          5 callgsubr
          endchar
        </CharString>
        <CharString name="circumflex.cap">
          -549 263 callsubr
          276 callgsubr
          763 vstem
          276 callgsubr
          100 callsubr
          286.99000549316406 167 183 -167 -31 callsubr
          -180.02000427246094 hlineto
          -371 -348 rlineto
          endchar
        </CharString>
        <CharString name="colon">
          -825 202 callgsubr
          442 367 hstemhm
          8.990005493164062 369 -276 369 hintmask 00000000
          hintmask 11010000
          309.97999572753906 1146.979995727539 rmoveto
          120 callgsubr
          232 callsubr
          97 129 84 87 131.02000427246094 80 -43 69 -118 hvcurveto
          hintmask 11100000
          -93 -809 rmoveto
          68 callsubr
          endchar
        </CharString>
        <CharString name="colonmonetary">
          63 -342.99000549316406 2155.990005493164 hstem
          202.99000549316406 1149.990005493164 vstem
          701.9900054931641 -14 rmoveto
          -50 -328.99000549316406 rlineto
          -109 hlineto
          52 346.99000549316406 rlineto
          -292.97999572753906 -57 callsubr
          -99 288.00999450683594 272 vvcurveto
          472 177 callsubr
          338 167 callsubr
          77 vhcurveto
          122 callsubr
          284 rlineto
          109 hlineto
          -41 -269 rlineto
          17 1 16 1 17 23 153 callsubr
          -1 20.009994506835938 hflex1
          40.989990234375 268.99000549316406 rlineto
          109 hlineto
          -42 -278 83 -11 55 -17.020004272460938 56 55 callsubr
          rlinecurve
          150 callsubr
          -245 -15 callgsubr
          19 -58 153 callsubr
          -4 callgsubr
          268 callgsubr
          rlinecurve
          -163.97999572753906 -1089 92 153 callsubr
          -59 callgsubr
          40 231 callsubr
          43 rlinecurve
          65.99000549316406 -183.99000549316406 -52 callgsubr
          -60 -118 -53 -153 -22.979995727539062 rlinecurve
          -51 -340 rlineto
          -110 hlineto
          50 328.99000549316406 rlineto
          -18.979995727539062 -5 callgsubr
          -23 callsubr
          -1 -19 -18.990005493164062 -17 1 -19 hflex1
          32.96998596191406 219.989990234375 rmoveto
          -6 24 26.009994506835938 -77 callsubr
          29 hhcurveto
          11 11 0 0.9900054931640625 11 hvcurveto
          169 1116.020004272461 rlineto
          -13 -13 216 callgsubr
          270 callgsubr
          hhcurveto
          -25 -15 callsubr
          -77 callsubr
          -5 142 callsubr
          hvcurveto
          -166 -1101 rlineto
          50 1055 rmoveto
          -158 -98 -95.00999450683594 -227 -5 -284.02000427246094 -4 -179 -40 callgsubr
          -135 -14 callgsubr
          -76 151 999.0099945068359 rcurveline
          endchar
        </CharString>
        <CharString name="comma">
          -825 -519 813.9900054931641 hstem
          0 callsubr
          277.99000549316406 vstem
          38.99000549316406 52.97999572753906 -22 callgsubr
        </CharString>
        <CharString name="copyright">
          740 -50 callgsubr
          129 258 213 callgsubr
          566.0099945068359 204.97999572753906 257.00999450683594 126.00999450683594 hstem
          174.97999572753906 142 282.010009765625 250.97999572753906 923.0200042724609 -25 callgsubr
          221 callgsubr
          -384 -389.02000427246094 -485.99000549316406 -487 384 221 callsubr
          385 392.00999450683594 487 485.99000549316406 -385 389.02000427246094 279 callgsubr
          -419 -309 336 414 413 309 336 419 419 309 -336 -413 -414 -309 -336 -419 hvcurveto
          48.99000549316406 1241.990005493164 rmoveto
          -325 -171.99000549316406 -216.99000549316406 -284 2 hvcurveto
          -259.00999450683594 0.9900054931640625 176 179 callgsubr
          274 hhcurveto
          133 124 50 53 60.99000549316406 hvcurveto
          124 callgsubr
          173 rlineto
          -28 -39 56 callgsubr
          -35 -106.99000549316406 hhcurveto
          -145 -106 87 221 46 callgsubr
          155 1 102.02000427246094 271 callgsubr
          145 hhcurveto
          81 96 callgsubr
          -25 -30 42 hvcurveto
          37 205 rlineto
          23 -41 -100 31.990005493164062 -113 hhcurveto
          endchar
        </CharString>
        <CharString name="currency">
          189 251.99000549316406 222 432 222 hstem
          341.99000549316406 234 412 233.97999572753906 vstem
          1221.979995727539 689.9900054931641 rmoveto
          82 -22 76 -38.99000549316406 65.99000549316406 vhcurveto
          208 208.02000427246094 -141 141.99000549316406 -207 193 callsubr
          rlineto
          63 callsubr
          -69 -82 26.009994506835938 -88 hhcurveto
          -93 callsubr
          -78 -23 -40.02000427246094 -52 callsubr
          hvcurveto
          -210.99000549316406 212 -141 -142 210 -209.99000549316406 rlineto
          -44 -52 callsubr
          142 callsubr
          -81 -87 vvcurveto
          -88 25.990005493164062 -82 97 callgsubr
          -68 vhcurveto
          -209.02000427246094 -209 142 -141 211 211 rlineto
          -39.02000427246094 65.99000549316406 77 -22 82 hhcurveto
          84.99000549316406 -14 callgsubr
          24 42 -61 callsubr
          hvcurveto
          211 -211 142 141 -211 211 rlineto
          42 -61 callsubr
          23.990005493164062 272 callgsubr
          85 vvcurveto
          -440 -216 rmoveto
          -113.99000549316406 -92 98 118 118 92 98 113.99000549316406 114.02000427246094 92 -98 -118 -118 -92 -98 -114.02000427246094 hvcurveto
          endchar
        </CharString>
        <CharString name="d">
          -77 128 callsubr
          vstem
          919.9799957275391 1634 rmoveto
          -68 callsubr
          -484 rlineto
          -89 callgsubr
          248 callsubr
          238 callsubr
          -344 hlineto
          -389 -1406.020004272461 -78 callgsubr
        </CharString>
        <CharString name="dagger">
          -536 1062.990005493164 213.99000549316406 hstemhm
          353.97999572753906 248.99000549316406 255 callsubr
          345.99000549316406 943.9799957275391 rmoveto
          -101 -792.9900054931641 rlineto
          217 hlineto
          133 792.9900054931641 16 106 callsubr
          rlineto
          241 hlineto
          33 214 rlineto
          196 callsubr
          hlineto
          41 219 callgsubr
          -250 hlineto
          -34.02000427246094 -214 rlineto
          239 hlineto
          -16 72 callgsubr
          rlineto
          endchar
        </CharString>
        <CharString name="daggerdbl">
          -536 576 202.99000549316406 284 213.99000549316406 hstemhm
          248.47999572753906 272.99000549316406 -167.49000549316406 248.99000549316406 285 callsubr
          258.99000549316406 339.99000549316406 rmoveto
          -21 -390.97999572753906 rlineto
          168 callsubr
          hlineto
          100 402.97999572753906 23 224.02000427246094 rlineto
          264 hlineto
          28 203 rlineto
          hintmask 11010000
          -258.00999450683594 hlineto
          28 164.99000549316406 16 106 callsubr
          rlineto
          241 hlineto
          33 214 rlineto
          -250.99000549316406 hlineto
          39 219 callgsubr
          -249.02000427246094 hlineto
          65 callgsubr
          -214 rlineto
          144 callsubr
          hlineto
          -16 72 callgsubr
          rlineto
          hintmask 11100000
          62 callsubr
          -164.99000549316406 rlineto
          -236 hlineto
          54 callsubr
          -203 rlineto
          235 callsubr
          hlineto
          -40 -236.02000427246094 rlineto
          endchar
        </CharString>
        <CharString name="dcaron">
          249 128 callsubr
          982.9900054931641 262.97999572753906 vstem
          1648.990005493164 1681.979995727539 rmoveto
          -229 -47.99000549316406 -18.990005493164062 -42 rlineto
          79 callsubr
          -30 4.0200042724609375 187 callsubr
          6 -25 151 -28 rlineto
          95.99000549316406 167 callgsubr
          51 199 156 vvcurveto
          80 270 callgsubr
          82 -15 callsubr
          27 vhcurveto
          -796 -531.9900054931641 rmoveto
          -89 callgsubr
          248 callsubr
          238 callsubr
          -344 hlineto
          -68 callsubr
          -484 rlineto
          -322.00999450683594 -922.0099945068359 -78 callgsubr
        </CharString>
        <CharString name="dcroat">
          -77 15 callsubr
          106 -60 callgsubr
          44 callsubr
          1399.990005493164 1391.979995727539 rmoveto
          -167 hlineto
          -40 callgsubr
          242.02000427246094 rlineto
          -344 hlineto
          -33 211 callgsubr
          rlineto
          -229 hlineto
          -16 230 callsubr
          rlineto
          227 hlineto
          -16 -112 rlineto
          -89 callgsubr
          163 1262 rlineto
          168 hlineto
          16 -60 callgsubr
          rlineto
          -869.0099945068359 -1164 -78 callgsubr
        </CharString>
        <CharString name="degree">
          -394 914.9799957275391 185.99000549316406 348.00999450683594 185.00999450683594 hstem
          38 callgsubr
          204 328 204 vstem
          38 callgsubr
          1274.979995727539 rmoveto
          -198 -4 230 callgsubr
          -162 206 hhcurveto
          216 162 154 38 callgsubr
          3 hvcurveto
          198 4 -156 161.02000427246094 -207.02000427246094 hhcurveto
          -215 -158.99000549316406 -155.02000427246094 -204 -3 hvcurveto
          532.0099945068359 1 rmoveto
          -100 -1 -71 -75 -27 callgsubr
          hhcurveto
          234 callsubr
          -71 79.02000427246094 95.99000549316406 2 hvcurveto
          99 1 70 74 95.99000549316406 hhcurveto
          91.02000427246094 -49 callgsubr
          -76.99000549316406 64 callgsubr
          -92 callsubr
          hvcurveto
          endchar
        </CharString>
        <CharString name="dieresis">
          -534 1337.990005493164 214 callsubr
          hstem
          -7 169 callgsubr
          135 339 vstem
          -7 1504.990005493164 rmoveto
          119 callsubr
          80 hhcurveto
          130 57 33 callgsubr
          80 2 -44 callgsubr
          -69 -87 286 callgsubr
          473.97999572753906 hmoveto
          -83 -92 callsubr
          200 callgsubr
          9 callgsubr
          endchar
        </CharString>
        <CharString name="dieresis.cap">
          -537 199 callsubr
          168 callsubr
          282 callgsubr
          168 callsubr
          255 callgsubr
          72.00999450683594 -68 callgsubr
          80 hhcurveto
          -58 callgsubr
          473.99000549316406 hmoveto
          198 callsubr
          73 callgsubr
          endchar
        </CharString>
        <CharString name="divide">
          46 -25 callgsubr
          367 142.989990234375 264 138 367 hstemhm
          491.99000549316406 369 -257 368.97999572753906 hintmask 00000000
          hintmask 01101000
          604 1206.990005493164 rmoveto
          -89 59 -63 97 207 callgsubr
          -118 -129 88 callsubr
          -103 -112 vhcurveto
          -344 -288.99000549316406 rmoveto
          -36 -265.02000427246094 rlineto
          962.0099945068359 hlineto
          34 263 -960 2 rlineto
          hintmask 11010000
          232 -623 rmoveto
          -89 59 -63 97 129 84 87 130.99000549316406 -14 callgsubr
          -43 69 -118 -129 88 callsubr
          -103 -112 vhcurveto
          endchar
        </CharString>
        <CharString name="dollar">
          -147 -275 536 -536 2067.990005493164 -526 525.9799957275391 hstemhm
          223.99000549316406 328.99000549316406 132.00999450683594 356.97999572753906 hintmask 01011000
          753.9900054931641 881.9900054931641 rmoveto
          hintmask 10111000
          -141 237 callgsubr
          -60 52.02000427246094 125 callsubr
          vvcurveto
          71 65 54 122 98 128 -41 -46 46.02000427246094 vhcurveto
          107.99000549316406 280.97999572753906 124 callgsubr
          31 -89 39 -130 12 rlinecurve
          42 250 rlineto
          -240 hlineto
          -44.99000549316406 -262.97999572753906 -236 -50 -159 -161 5 -228 rlinecurve
          4 -196 141 -142 124 -93 rrcurveto
          145 -106 47 -65 -87.99000549316406 vvcurveto
          -88 -64 -52 -151 -33 callgsubr
          -118 49.99000549316406 49 -64 vhcurveto
          -115 -282.00999450683594 38 -30 146.99000549316406 214 callgsubr
          137 55 callsubr
          rlinecurve
          -48 -265.02000427246094 rlineto
          240 hlineto
          48.99000549316406 270.00999450683594 259.00999450683594 39.970001220703125 152 154 178 callgsubr
          263 rlinecurve
          hintmask 01011000
          -77 callsubr
          203 -165 136 -119.99000549316406 91 rrcurveto
          endchar
        </CharString>
        <CharString name="dong">
          39 192.97999572753906 98 957 108.99000549316406 hstem
          47.97999572753906 1420 vstem
          1081 212 callgsubr
          rmoveto
          -241 hlineto
          55 callsubr
          -3 14.009994506835938 12 hvcurveto
          4 1 4.0200042724609375 2.9900054931640625 vvcurveto
          1 6 49.99000549316406 3.0200042724609375 21.009994506835938 vhcurveto
          -40 -48 234 callsubr
          -69.02000427246094 -180.97999572753906 hhcurveto
          -198 -157 114.02000427246094 235 callsubr
          363 250 239 343.99000549316406 -14 callgsubr
          52 -11 -11 35 hvcurveto
          105 callgsubr
          130.99000549316406 rlineto
          -264.99000549316406 hlineto
          23 164 rlineto
          -27 callsubr
          hlineto
          25.009994506835938 173 rlineto
          297 hlineto
          -25 -173 rlineto
          214 hlineto
          -23 -164 rlineto
          -214 hlineto
          -150 -1066 rlineto
          -621.0200042724609 392.00999450683594 rmoveto
          -124.99000549316406 62 -52 80 136.99000549316406 55 48.99000549316406 19 27 vhcurveto
          60 431 rlineto
          13.990005493164062 -14.009994506835938 -34.970001220703125 23 -103.02000427246094 hhcurveto
          -184 -85.00999450683594 -163 -196 hvcurveto
          673.0099945068359 -682.9900054931641 rmoveto
          -1085.009994506836 259 callsubr
          192.97999572753906 rlineto
          1084.990005493164 hlineto
          -27 -192.97999572753906 rlineto
          endchar
        </CharString>
        <CharString name="dotaccent">
          -959 154 callsubr
          368 hstem
          216 callgsubr
          125 callgsubr
          vstem
          216 callgsubr
          139 callgsubr
          -1.9799957275390625 80.99000549316406 113 callgsubr
          151 callgsubr
          11 callsubr
          -123.99000549316406 -84 34 callgsubr
          endchar
        </CharString>
        <CharString name="dotaccent.cap">
          -958 215 callgsubr
          363 hstem
          -3.9900054931640625 273 callgsubr
          vstem
          -3.9900054931640625 1779 rmoveto
          -93 -2 181 callsubr
          -42 callgsubr
          -92 callsubr
          hvcurveto
          endchar
        </CharString>
        <CharString name="dotlessi">
          0 1139.990005493164 hstem
          194 callsubr
          514.9900054931641 vstem
          144 callsubr
          1140 -95 callsubr
          endchar
        </CharString>
        <CharString name="e">
          -67 callsubr
          715.9799957275391 1155.990005493164 -107 callsubr
        </CharString>
        <CharString name="eacute">
          -67 callsubr
          585.9900054931641 1324.990005493164 rmoveto
          217 callgsubr
          -99 121.02000427246094 46 262 234 35.99000549316406 68 rlinecurve
          261 callgsubr
          rlineto
          -60 callgsubr
          -169 -107 callsubr
        </CharString>
        <CharString name="ebreve">
          -239 208 callsubr
          734 -43 callgsubr
          269 callsubr
          217 hstemhm
          -59 callgsubr
          61 callsubr
          -28.000015258789062 -43 callgsubr
          100.00999450683594 344 -136.989990234375 265 callgsubr
          hintmask 11101010
          415.99000549316406 1595.990005493164 77 callgsubr
          255 109.02000427246094 156 callsubr
          vhcurveto
          -184 29 callgsubr
          hintmask 11110100
          300 -440 -107 callsubr
        </CharString>
        <CharString name="ecaron">
          -67 callsubr
          401.97999572753906 160 callsubr
          130 callgsubr
          372 374 -13 callsubr
          193 callgsubr
          -6 callsubr
          -213 106 callgsubr
          -126.00999450683594 -68 rlineto
          314 -476 -107 callsubr
        </CharString>
        <CharString name="ecircumflex">
          -67 callsubr
          343.97999572753906 5 callgsubr
          372 -140 -107 callsubr
        </CharString>
        <CharString name="edieresis">
          -239 208 callsubr
          734 -43 callgsubr
          182 214 callsubr
          hstemhm
          -59 callgsubr
          61 callsubr
          -107.99000549316406 169 callgsubr
          37.00999450683594 344 -246 339 hintmask 00000000
          hintmask 11101010
          335.99000549316406 1504.990005493164 rmoveto
          240 callsubr
          130 57 33 callgsubr
          80 2 -44 callgsubr
          -69.02000427246094 174 callsubr
          473.99000549316406 hmoveto
          -83 -92 callsubr
          200 callgsubr
          9 callgsubr
          hintmask 11110100
          -94 -349 -107 callsubr
        </CharString>
        <CharString name="edotaccent">
          -239 208 callsubr
          734 -43 callgsubr
          157 368 hstemhm
          -59 callgsubr
          61 callsubr
          116.99998474121094 125 callgsubr
          -236.00999450683594 344 hintmask 00000000
          hintmask 11111000
          560.9900054931641 164 callsubr
          247 callgsubr
          113 callgsubr
          143 -62 callgsubr
          hintmask 11110100
          155 -324 -107 callsubr
        </CharString>
        <CharString name="egrave">
          -67 callsubr
          274.97999572753906 1573.990005493164 rmoveto
          36 82 callsubr
          124 99 rcurveline
          70 callgsubr
          266 callsubr
          441 -418 -107 callsubr
        </CharString>
        <CharString name="eight">
          39 -20 216 1143.979995727539 208.99000549316406 hstemhm
          269 callgsubr
          334.99000549316406 -140.00001525878906 328 212.010009765625 352.99000549316406 -235.00001525878906 310 hintmask 00000000
          hintmask 11010100
          496.99000549316406 769.9900054931641 rmoveto
          hintmask 11101000
          -189.99000549316406 -59 -182 212 callsubr
          1 -235 rrcurveto
          -234.99000549316406 1 216 -135 295 hhcurveto
          328.99000549316406 247 157 -27 callsubr
          179 212 callsubr
          126.00999450683594 -133.02000427246094 105 hvcurveto
          hintmask 11010100
          172 62 162 105 230 vvcurveto
          202 -195 136.99000549316406 -267 -303 -203 -164 -273.97999572753906 -144.02000427246094 272 callgsubr
          -106.99000549316406 97 -90.00999450683594 vhcurveto
          482 410.00999450683594 rmoveto
          -128 -71.99000549316406 -81 -85.00999450683594 -57.02000427246094 vhcurveto
          -97 75.02000427246094 -76 69.97999572753906 247 callgsubr
          vvcurveto
          116.99000549316406 55 83 106.99000549316406 85.02000427246094 55 callgsubr
          -56 -104 vhcurveto
          hintmask 11101000
          -302 -984 rmoveto
          -105 -111 85 117 136 75 73.99000549316406 87 57 hvcurveto
          123 -27 callgsubr
          211 callsubr
          -85.02000427246094 -110 vvcurveto
          -106.99000549316406 -69.02000427246094 -71 -115 vhcurveto
          endchar
        </CharString>
        <CharString name="ellipsis">
          227 202 callgsubr
          hstemhm
          29.979995727539062 369 157.010009765625 369 157 368.97999572753906 256 callgsubr
          7 callgsubr
          525.9900054931641 65 callsubr
          526 hmoveto
          -129 -79 10 callgsubr
          58.99000549316406 -62.99000549316406 122 callgsubr
          265 callsubr
          86.99000549316406 130.99000549316406 80 214 callgsubr
          69 -118.00999450683594 hvcurveto
          endchar
        </CharString>
        <CharString name="emacron">
          -239 208 callsubr
          734 -43 callgsubr
          239 49 callsubr
          hstem
          -59 callgsubr
          61 callsubr
          267.99998474121094 344 vstem
          443.99000549316406 177 callgsubr
          225 callgsubr
          597.0200042724609 hlineto
          18 49 callsubr
          rlineto
          -597.0099945068359 hlineto
          272 -458 -107 callsubr
        </CharString>
        <CharString name="emdash">
          680 102 callgsubr
          1609.009994506836 66 callsubr
          1572 hlineto
          37 204 callsubr
          -1572 hlineto
          endchar
        </CharString>
        <CharString name="endash">
          187 102 callgsubr
          1136 66 callsubr
          1099 hlineto
          37 204 callsubr
          -1099 hlineto
          endchar
        </CharString>
        <CharString name="eng">
          -29 -527.9900054931641 146 1268.9700012207031 253 hstem
          834.9900054931641 -16 callsubr
          -8.009994506835938 -164 -58 -400 65 callgsubr
          179 callgsubr
          rrcurveto
          -253 -36 -54 -128.99000549316406 -154.99000549316406 hhcurveto
          -11 -45 4 8 -18 hvcurveto
          -38 -121.02000427246094 rlineto
          -23.990005493164062 22 101 -13 73.02000427246094 hhcurveto
          297.97999572753906 147 95.99000549316406 432 73 hvcurveto
          38 226.97999572753906 74 527.0200042724609 100 vvcurveto
          223.99000549316406 -105 78 -171.99000549316406 vhcurveto
          endchar
        </CharString>
        <CharString name="eogonek">
          -239 112 callgsubr
          261 88 callgsubr
          734 -43 callgsubr
          hstemhm
          -59 callgsubr
          61 callsubr
          -169.00001525878906 281 156 344 hintmask 11110100
          593.9799957275391 226 91 callgsubr
          277 callsubr
          -359 -284 -299 -414.99000549316406 -237.02000427246094 124 -220.97000122070312 309 vhcurveto
          196 callgsubr
          hlineto
          hintmask 11101100
          -99 -53 -144 -118 -129 66 callgsubr
          -39 -28 105 callgsubr
          57 63 147 132.02000427246094 118.99000549316406 -59 callgsubr
          hvcurveto
          92 48.99000549316406 64 62.02000427246094 31 63 callsubr
          -92 171 rcurveline
          hintmask 11110100
          239 callsubr
          43 734 rmoveto
          53 22 -31.009994506835938 -70 -161 -150 -130 -118 -7 hvcurveto
          140 3 63 259.02000427246094 127 hhcurveto
          endchar
        </CharString>
        <CharString name="equal">
          -266 147 callgsubr
          197.97999572753906 1055.990005493164 rmoveto
          -36.99000549316406 -247.99000549316406 rlineto
          839.9900054931641 hlineto
          37 80 callgsubr
          rlineto
          -840 hlineto
          153 callgsubr
          -492.99000549316406 rmoveto
          -37 -248.02000427246094 rlineto
          840.0099945068359 hlineto
          37 204 callsubr
          -840 hlineto
          endchar
        </CharString>
        <CharString name="estimated">
          91 -95 callgsubr
          162.97999572753906 464.99000549316406 156.00999450683594 424.99000549316406 163 hstem
          0 callsubr
          375 454 361.97999572753906 vstem
          1305.990005493164 611.9799957275391 rmoveto
          10 274 callsubr
          0 82.99000549316406 86.02000427246094 vvcurveto
          -10 328.99000549316406 -239 200 -302 -5.0200042724609375 rrcurveto
          -435 -6.9900054931640625 -205 -286 -392 vvcurveto
          -430 239 -256.97999572753906 407 199 181 69.97999572753906 61 88 vhcurveto
          87 callgsubr
          151 rlineto
          -55 -72 -145 -64 -169 hhcurveto
          -106.99000549316406 -98 21.020004272460938 53.99000549316406 -75 hvcurveto
          390 805.9900054931641 vlineto
          -351.99000549316406 541 rmoveto
          -384.97999572753906 -454 352.99000549316406 vlineto
          49.99000549316406 65.99000549316406 56 callsubr
          22 99.99000549316406 hhcurveto
          87 66 -15 -25 50 hvcurveto
          endchar
        </CharString>
        <CharString name="eth">
          -139 -95 callgsubr
          197.97999572753906 793.0000152587891 182.99000549316406 hstem
          65.99000549316406 374 340.989990234375 167 callsubr
          vstem
          863.9900054931641 1565.979995727539 rmoveto
          115 callgsubr
          140 -118 211 callsubr
          rlineto
          0 -70 -81.02000427246094 -64 -70.99000549316406 vhcurveto
          -94 65.99000549316406 -105 274 callsubr
          -110 28 -60 -179.02000427246094 rcurveline
          94 121 callsubr
          69 -41 64 -57 -34 callsubr
          -121 rcurveline
          269 callgsubr
          -114.00999450683594 102.02000427246094 -4 callsubr
          47.97999572753906 -70 97 callgsubr
          -68 callgsubr
          5 -123.99000549316406 rlinecurve
          28 -31 -56 -23 callgsubr
          -94 hhcurveto
          -336 -219 -277 -458 -214 143 -224.99000549316406 307 419 211 356.97999572753906 461 262.97999572753906 -75.02000427246094 298 -207 203 hvcurveto
          -83 -697 rmoveto
          -52 -17 -205 -10 -52 callgsubr
          vhcurveto
          -205 -27 -82 -164 -99 hhcurveto
          -69 -37 101 128 80 callgsubr
          63 316.00999450683594 137.02000427246094 86 58 -59 -47 -3 hvcurveto
          endchar
        </CharString>
        <CharString name="exclam">
          -665 202 callgsubr
          hstemhm
          125 callsubr
          369 -369 607 127 callgsubr
          hintmask 11000000
          -34.02000427246094 -1440.009994506836 rmoveto
          -128.99000549316406 -79.00999450683594 6 callgsubr
          endchar
        </CharString>
        <CharString name="exclamdbl">
          -48 202 callgsubr
          hstemhm
          125 callsubr
          369 -369 1225.009994506836 -607.0099945068359 369 127 callgsubr
          617.9900054931641 hmoveto
          -135.99000549316406 -1290 rlineto
          177 callsubr
          hlineto
          243.02000427246094 1290 rlineto
          274 callgsubr
          hlineto
          hintmask 11010000
          -652 -1440.009994506836 rmoveto
          -128.99000549316406 -79.00999450683594 6 callgsubr
          618 65 callsubr
          endchar
        </CharString>
        <CharString name="exclamdown">
          -665 1005.9900054931641 367 hstemhm
          256 368.97999572753906 255 callsubr
          416.99000549316406 1006 rmoveto
          129 78.99000549316406 103 112 88.99000549316406 -59 63.02000427246094 -97 -129 -93 callsubr
          -87.02000427246094 71 callgsubr
          -80 122 callsubr
          -69 118 hvcurveto
          -34 -1439.990005493164 rmoveto
          182 callsubr
          1289.9700012207031 rlineto
          -257.97999572753906 hlineto
          -243.02000427246094 -1289.9700012207031 rlineto
          167 callsubr
          hlineto
          endchar
        </CharString>
        <CharString name="f">
          -586 48 callgsubr
          hstem
          110 844.9799957275391 vstem
          236.99000549316406 924 -83 callgsubr
          -97 callgsubr
          122 hlineto
          endchar
        </CharString>
        <CharString name="f_f">
          179 48 callgsubr
          hstem
          110 1609.990005493164 -89 callsubr
          endchar
        </CharString>
        <CharString name="f_f_i">
          843 75 callgsubr
          2096.990005493164 -387 87 callsubr
          hintmask 00000000
          hintmask 11001000
          1820 1479.990005493164 rmoveto
          -93 -2 81 -74 90.00999450683594 hhcurveto
          26 callgsubr
          -1583 -78 callsubr
          57 -37.99000549316406 95 callsubr
          -11 62 239 callgsubr
          -54 -69 4 -55.99000549316406 hhcurveto
          -270.00999450683594 -183.99000549316406 -47 callgsubr
          -248 -36 hvcurveto
          -19 -105 rlineto
          -111 hlineto
          -41 -216 rlineto
          hintmask 11001000
          122 hlineto
          764.0099945068359 216 -95 callsubr
          endchar
        </CharString>
        <CharString name="f_f_l">
          844 48 callgsubr
          hstem
          110 2082 -89 callsubr
          831 710 rmoveto
          -220 -1634 114 callgsubr
          222 238 callsubr
          -359.00999450683594 hlineto
          endchar
        </CharString>
        <CharString name="ffi_dflt">
          843 75 callgsubr
          2085.990005493164 -387 87 callsubr
          hintmask 00000000
          hintmask 11001000
          1809 1 callgsubr
          143 170 callsubr
          155 callsubr
          hhcurveto
          -123.99000549316406 -66 callgsubr
          -1572 -78 callsubr
          48 -37.99000549316406 11 -11 62 239 callgsubr
          -53.99000549316406 -60 -41 callsubr
          hintmask 11001000
          122 hlineto
          764.0099945068359 216 -95 callsubr
          endchar
        </CharString>
        <CharString name="fi">
          78 75 callgsubr
          1321 -387.02000427246094 125 callgsubr
          hintmask 00000000
          hintmask 11001000
          1043.990005493164 1 callgsubr
          143 -62 callgsubr
          -807 -555.9900054931641 -83 callgsubr
          hintmask 10110000
          -69 callsubr
          47 -37.99000549316406 11 -11 61.99000549316406 239 callgsubr
          -54 -58.97999572753906 4 -56.02000427246094 hhcurveto
          -269.99000549316406 -184 -47 callgsubr
          -248 -36 hvcurveto
          -18.990005493164062 -105 rlineto
          -111 hlineto
          -41 -216 rlineto
          hintmask 11001000
          122 hlineto
          763.9900054931641 216 rmoveto
          -156 -1140 114 callgsubr
          158 1140 rlineto
          -359.00999450683594 hlineto
          endchar
        </CharString>
        <CharString name="five">
          -175 -365.99000549316406 242.99000549316406 499.99000549316406 228 260 275 hstem
          660.9900054931641 391 vstem
          150 -123 rmoveto
          -23 -25 1 5 -31.009994506835938 hvcurveto
          -36.99000549316406 -232 rlineto
          -14.009994506835938 40 57 -77 callsubr
          32.99000549316406 hhcurveto
          511 377.02000427246094 217.99000549316406 388.99000549316406 267 -172.02000427246094 237 callsubr
          -210 -93 -87 -18 -17 -37.99000549316406 hvcurveto
          -57 callsubr
          295 rlineto
          468.00999450683594 hlineto
          82 291 rlineto
          -208 hlineto
          -22.020004272460938 -16 rlineto
          -587 hlineto
          -153.99000549316406 -681 126 -135 rlineto
          28 49 105 25.009994506835938 -49 callgsubr
          hhcurveto
          162 38 -77 -99 -249 -316 -75 -194.99000549316406 hvcurveto
          endchar
        </CharString>
        <CharString name="fl">
          79 48 callgsubr
          hstem
          110 1316.979995727539 vstem
          236.99000549316406 924 -83 callgsubr
          -97 callgsubr
          122 hlineto
          831 710 rmoveto
          -220 -1634 rlineto
          -50 callsubr
          222 238 callsubr
          -358.99000549316406 hlineto
          endchar
        </CharString>
        <CharString name="florin">
          -292 938.9799957275391 216 299.010009765625 215.97999572753906 hstem
          161.99000549316406 892.9799957275391 vstem
          169 callgsubr
          938.9900054931641 rmoveto
          -47 callgsubr
          -1293.990005493164 220 callgsubr
          2.9900054931640625 122 callsubr
          313.02000427246094 134 977.9799957275391 vhcurveto
          190 hlineto
          24 216 rlineto
          -189 hlineto
          26.009994506835938 143.99000549316406 24.990005493164062 114.02000427246094 233 callgsubr
          40 76 1 rlinecurve
          57 0.9900054931640625 47 -37.99000549316406 11 -11 62 239 callgsubr
          -54 -69 4 -55.99000549316406 hhcurveto
          -270.00999450683594 -183.99000549316406 -47 callgsubr
          -248 -36 hvcurveto
          -17 -90 -161 -30 -21.009994506835938 -186 rlineto
          152 hlineto
          endchar
        </CharString>
        <CharString name="four">
          -47 0 230.47999572753906 hstem
          216 callgsubr
          1238.020004272461 vstem
          554.9900054931641 1256 rmoveto
          -159.99000549316406 -361 -212 274 callgsubr
          -182 -366 182 callgsubr
          -163.97999572753906 rcurveline
          595.9900054931641 hlineto
          116 callgsubr
          -375 rlineto
          328.99000549316406 hlineto
          47 375 rlineto
          200 hlineto
          37 261 -201 -14.009994506835938 47 402 -322.99000549316406 -35 231 callgsubr
          -375.00999450683594 -365 -17 272 callgsubr
          111 510 834.0099945068359 -82 89 rlineto
          -297 hlineto
          endchar
        </CharString>
        <CharString name="four.numr">
          -87 704 201.5 hstem
          51.99000549316406 1083.979995727539 vstem
          1135.979995727539 271 callsubr
          rmoveto
          -192 -7 32 262 -267 -23 -35 -247.99000549316406 -302 -11 65.99000549316406 86 445.00999450683594 669 -213.02000427246094 104 -68 -1 -549.9900054931641 -925.9799957275391 60.99000549316406 -128 rlineto
          533 hlineto
          -40.99000549316406 -293.00999450683594 rlineto
          278 hlineto
          35 293.00999450683594 rlineto
          193.99000549316406 hlineto
          24 222.99000549316406 rlineto
          endchar
        </CharString>
        <CharString name="fraction">
          -325 191 callgsubr
          78.99000549316406 939.9900054931641 vstem
          759.9900054931641 1530 rmoveto
          -681 -1530 rlineto
          258.99000549316406 hlineto
          681 -40 callsubr
          -258.99000549316406 hlineto
          endchar
        </CharString>
        <CharString name="franc">
          -83 432.97999572753906 193.50999450683594 256.50001525878906 400.47999572753906 hstem
          -37 1247.979995727539 vstem
          182.99000549316406 204.97999572753906 rmoveto
          -219.99000549316406 hlineto
          234 callgsubr
          228 rlineto
          49 callsubr
          hlineto
          153.99000549316406 1097.009994506836 rlineto
          842 hlineto
          -35.99000549316406 -249.02000427246094 -521.0099945068359 5 -55.99000549316406 -406 437 6 -31 -263.99000549316406 -441 8.990005493164062 -28 -198 rlineto
          300 hlineto
          -33 -228 rlineto
          -299.00999450683594 hlineto
          -28 -204.97999572753906 rlineto
          -320 hlineto
          28 204.97999572753906 rlineto
          endchar
        </CharString>
        <CharString name="g">
          -73 callgsubr
          44 callsubr
          1019.9900054931641 1111 rmoveto
          21 -59.99000549316406 -73 callsubr
          -104 callgsubr
          -188 -45 rlineto
          -489 -883.0200042724609 -97 callsubr
        </CharString>
        <CharString name="gbreve">
          -73 callgsubr
          269 callsubr
          217 32 callgsubr
          56.99000549316406 30 callsubr
          hintmask 00000000
          hintmask 11111110
          822.9900054931641 256 callsubr
          255 108.99000549316406 127 callsubr
          hvcurveto
          -184.02000427246094 hlineto
          -4 callgsubr
          270 callgsubr
          -32 -93 callsubr
          -118 hhcurveto
          -43 callsubr
          -15 callsubr
          39 80 50 callgsubr
          2 15 -79 callsubr
          14 hvcurveto
          -187.99000549316406 hlineto
          -5 -18 -7 190 callsubr
          58 callsubr
          vhcurveto
          197 -6 callsubr
          rmoveto
          21 -59.99000549316406 -73 callsubr
          hintmask 11111010
          -104 callgsubr
          rlineto
          hintmask 11111110
          -188 -45 rlineto
          hintmask 11111010
          -489 -883.0200042724609 -97 callsubr
        </CharString>
        <CharString name="gcaron">
          -73 callgsubr
          44 callsubr
          875.9900054931641 159 callsubr
          95 callgsubr
          -275.99000549316406 -6 callsubr
          -213.02000427246094 106 callgsubr
          212 callsubr
          -68 130 callgsubr
          -103 96 callsubr
          rmoveto
          -104 callgsubr
          -188 -45 rlineto
          21 -59.99000549316406 207 callsubr
          -928.0099945068359 -97 callsubr
        </CharString>
        <CharString name="gcircumflex">
          -73 callgsubr
          44 callsubr
          855 1402 rmoveto
          138 callsubr
          155 -57 callgsubr
          138 -52 callsubr
          290.02000427246094 173.02000427246094 rlineto
          164.99000549316406 -291 rmoveto
          21 -59.99000549316406 -73 callsubr
          -104 callgsubr
          -188 -45 rlineto
          -489 -883.0200042724609 -97 callsubr
        </CharString>
        <CharString name="gcommaaccent">
          -73 callgsubr
          hstem
          -76 callgsubr
          177.99000549316406 258 vstem
          779 1248.990005493164 rmoveto
          156 104 11 93 rlineto
          -40 238 callgsubr
          -28 47 50 vvcurveto
          -49 callgsubr
          46 44.02000427246094 23 12.990005493164062 vhcurveto
          2.9900054931640625 26.009994506835938 79 callgsubr
          70 rlineto
          -104.02000427246094 -19 -124.99000549316406 -121 -171 vvcurveto
          -105 232 callgsubr
          -87.99000549316406 91.02000427246094 -19 vhcurveto
          235 callsubr
          -138 rmoveto
          21 -59.99000549316406 -73 callsubr
          -104 callgsubr
          -188 -45 rlineto
          -489 -883.0200042724609 -97 callsubr
        </CharString>
        <CharString name="gdotaccent">
          -73 callgsubr
          157 368 hstem
          -76 callgsubr
          201.99000549316406 87 callsubr
          vstem
          812.9900054931641 165 callgsubr
          -53 callsubr
          152 callgsubr
          -84 -65 callgsubr
          -41 callgsubr
          207 -202 rmoveto
          21 -59.99000549316406 -73 callsubr
          -104 callgsubr
          -188 -45 rlineto
          -489 -883.0200042724609 -97 callsubr
        </CharString>
        <CharString name="germandbls">
          -22 208 callsubr
          1137.979995727539 220.99000549316406 hstemhm
          691.9900054931641 355 -138.010009765625 348.99000549316406 -301.99000549316406 328 hintmask 11001000
          188.99000549316406 271 callsubr
          rmoveto
          -124 -926.9900054931641 rlineto
          235 callgsubr
          hlineto
          117.99000549316406 866.9799957275391 rlineto
          364.02000427246094 44 118 133 -60 callgsubr
          hhcurveto
          83 51 -53 -64 -98 -52 -69 -82 -71 hvcurveto
          hintmask 11100000
          -63 -65 -68 callsubr
          -69 -95 vvcurveto
          -87 64 -27 callgsubr
          50 -70 vhcurveto
          hintmask 11010000
          41 -55 61.99000549316406 141 callsubr
          -77 vvcurveto
          -88 -68 callsubr
          -30 -88 -0.9799957275390625 vhcurveto
          -64 -1 -90.00999450683594 35 54 callsubr
          35 -24 -264 rcurveline
          -25 45 77 -21.970001220703125 150 hhcurveto
          271.02000427246094 169.97999572753906 120.97000122070312 227 140 -64 94 -52 callgsubr
          82 hvcurveto
          hintmask 11100000
          -52 callsubr
          89 -18.990005493164062 48 63 callsubr
          vvcurveto
          hintmask 11001000
          145 237 5 304.00999450683594 vvcurveto
          194 -168 107.99000549316406 -243.02000427246094 -263.99000549316406 -331 -58 -600 -89.00999450683594 vhcurveto
          endchar
        </CharString>
        <CharString name="grave">
          -805 236 callgsubr
          548 hstem
          -10.990005493164062 542.9799957275391 vstem
          -11 1573.990005493164 rmoveto
          35.97999572753906 82 callsubr
          124 99 rcurveline
          -334 449 -208.97999572753906 -200 rlineto
          endchar
        </CharString>
        <CharString name="grave.cap">
          -824 260 callsubr
          216 callgsubr
          489 vstem
          216 callgsubr
          42 callsubr
          196 -140 97 -36 -25 callgsubr
          44 callgsubr
          endchar
        </CharString>
        <CharString name="greater">
          44 182.99000549316406 1170 hstem
          254.99000549316406 1044.990005493164 vstem
          1283.990005493164 703 rmoveto
          16 -60 callgsubr
          -908 520.0099945068359 -44 callsubr
          -283 547.9900054931641 -290.02000427246094 -622 -285.97999572753906 -36.99000549316406 -311.00999450683594 1029 520.0099945068359 rlineto
          endchar
        </CharString>
        <CharString name="greaterequal">
          40 -9 callgsubr
          63 callsubr
          hstem
          162.97999572753906 1060 vstem
          1206.990005493164 669 rmoveto
          -1019 -418.02000427246094 36 301.02000427246094 503.00999450683594 198 -446.00999450683594 226 31 279 910.9900054931641 -486.99000549316406 -16 -99 rlineto
          -99 -669 rmoveto
          -945.0099945068359 hlineto
          17.020004272460938 -9 callgsubr
          rlineto
          943.9900054931641 hlineto
          -16 228 callsubr
          endchar
        </CharString>
        <CharString name="gtilde">
          -73 callgsubr
          269 callsubr
          -19 callgsubr
          69.97999572753906 372.02000427246094 hintmask 11110100
          648.9900054931641 1454 rmoveto
          90 callgsubr
          hintmask 11101100
          240 callgsubr
          -45 hvcurveto
          105.99000549316406 -136 rlineto
          hintmask 11110100
          149 callgsubr
          rrcurveto
          124 -298 rmoveto
          -104 callgsubr
          -188 -45 rlineto
          21 -59.99000549316406 207 callsubr
          -928.0099945068359 -97 callsubr
        </CharString>
        <CharString name="guillemotleft">
          645 243 callgsubr
          1637.990005493164 vstem
          38 callgsubr
          719.9900054931641 rmoveto
          65 callgsubr
          8 callsubr
          -742.0099945068359 -396 rlineto
          806.0099945068359 hmoveto
          -32 8 callsubr
          -741.9900054931641 -396 rlineto
          endchar
        </CharString>
        <CharString name="guillemotright">
          645 122 983.9799957275391 hstem
          213 callgsubr
          1637.990005493164 vstem
          1012.9799957275391 517.9799957275391 rmoveto
          32 7 callsubr
          741.9900054931641 395.99000549316406 rlineto
          806.0099945068359 hmoveto
          31.990005493164062 7 callsubr
          742.0099945068359 395.99000549316406 rlineto
          endchar
        </CharString>
        <CharString name="guilsinglleft">
          -161 243 callgsubr
          832 vstem
          38 callgsubr
          719.9900054931641 rmoveto
          65 callgsubr
          8 callsubr
          -742.0099945068359 -396 rlineto
          endchar
        </CharString>
        <CharString name="guilsinglright">
          -161 122 983.9799957275391 hstem
          213 callgsubr
          832 vstem
          1012.9799957275391 517.9799957275391 rmoveto
          32 7 callsubr
          741.9900054931641 395.99000549316406 rlineto
          endchar
        </CharString>
        <CharString name="h">
          57 callsubr
          75 562.0200042724609 rlineto
          -348 hlineto
          -220 -1634 -85 callgsubr
        </CharString>
        <CharString name="hbar">
          -37 143 callgsubr
          269 106.010009765625 -60 callgsubr
          hstemhm
          824.9900054931641 61 callsubr
          285 callsubr
          919 175 callgsubr
          -158 -131 -92 -142 -88 hvcurveto
          29 150 25 190.02000427246094 rlineto
          212 hlineto
          16 -60 callgsubr
          rlineto
          -210 hlineto
          31.990005493164062 242.02000427246094 rlineto
          -348 hlineto
          105 callsubr
          211 callgsubr
          rlineto
          -123 hlineto
          -16 230 callsubr
          rlineto
          122 hlineto
          -170 -1262 -85 callgsubr
        </CharString>
        <CharString name="hcircumflex">
          57 callsubr
          97 callgsubr
          338 33 55 callsubr
          287 166.99000549316406 182.99000549316406 -166.99000549316406 -31 callsubr
          -180 hlineto
          -231.02000427246094 -216.99000549316406 5 41 rlineto
          -348 hlineto
          -220 -1634 -85 callgsubr
        </CharString>
</ttFont>
